<svg width="143" height="150" viewBox="0 0 143 150" fill="none" xmlns="http://www.w3.org/2000/svg">
<g clip-path="url(#clip0_11_248)">
<path fill-rule="evenodd" clip-rule="evenodd" d="M91.7838 17.8804V17.9832L91.8325 18.0348V18.2409L91.8844 18.3441V18.5501L91.9363 18.6017L91.9883 18.7562L92.0921 18.9622L92.144 19.1686L92.1927 19.2718V19.4262L92.2446 19.5807L92.3485 19.7355L92.4523 20.0444V20.2507L92.5561 20.3536L92.608 20.5084L92.7086 20.7144L92.7605 20.8689L92.8125 20.9721V21.2297L92.9163 21.3842L92.9682 21.5386V21.6934L93.0201 21.8994V22.0539L93.072 22.2087L93.1726 22.3631L93.2765 22.6727V22.7756L93.4322 23.0848L93.4841 23.2392L93.588 23.4453L93.6886 23.5485L93.7405 23.6517L93.8443 23.7548V23.8061L93.9482 23.8577L93.9968 23.9606L94.1007 24.0638H94.1526L94.2045 24.1153H94.4608L94.5128 24.0638H94.5647L93.4841 28.5468V28.4952H93.3803L93.2765 28.4437L93.0201 28.3924L92.9682 28.3405L92.4004 28.0832L91.8844 27.7223L91.68 27.5163L91.4723 27.3615L91.2679 27.1039L91.0602 26.8978L90.9077 26.6914L90.8039 26.4341L90.5962 26.2281L90.5443 26.0217L90.288 25.4551L90.2361 25.2491L90.1322 24.9911L89.9797 24.373V23.8577L89.9278 23.6517V22.5179L89.9797 22.3119V21.6418L90.0316 21.4358V21.2297L90.1322 20.9205V20.8176L90.2361 20.6628L90.288 20.4565L90.3918 20.2507L90.4924 20.096L90.5443 19.9415L90.6481 19.7355L90.752 19.6323L90.8039 19.4262L90.9077 19.323L90.9564 19.1686L91.0602 19.0141L91.1122 18.8597L91.216 18.7562L91.2679 18.6533L91.3717 18.5501V18.4472L91.4723 18.3441V18.2925L91.5762 18.1896L91.6281 18.0864V18.0348L91.7319 17.932V17.8804H91.7838Z" fill="#646464"/>
<path fill-rule="evenodd" clip-rule="evenodd" d="M93.9968 26.2795L94.4608 24.0123L94.6166 24.0639H95.3889L95.4927 24.0123H95.8009L95.9567 23.9607L96.1644 23.8579H96.3169L96.4207 23.8063H96.729L96.8328 23.7031L97.1411 23.6002L97.2449 23.5486H97.4007L97.5013 23.4455L97.657 23.3426L97.7608 23.291L97.9133 23.2394L98.0691 23.1362L98.1729 23.0334L98.2768 22.9818H98.3254L98.4812 22.8786L98.585 22.7757L98.7408 22.6729L98.9971 22.4152L99.3054 22.2088L99.4092 22.106L99.565 21.8996L99.6688 21.7964L99.8732 21.642L99.9771 21.4875V21.4359L100.13 21.3331L100.233 21.1267L100.389 20.9722L100.493 20.7659L100.697 20.5601L101.11 19.9933L101.213 19.684L101.418 19.478V19.4264L101.677 18.9624L101.781 18.7051L101.986 18.4474L102.038 18.1898L102.245 17.8805L102.346 17.52L102.553 17.2105V17.1589L102.605 16.9528L102.914 16.2831L103.17 15.5618L109.614 18.1382L109.562 18.1898L109.202 19.0656L108.995 19.4264L108.787 19.8901L107.45 22.106L107.19 22.4152L106.986 22.7757L106.726 23.085L105.75 24.3732L104.458 25.6614L104.254 25.8158L104.202 25.8674L103.686 26.2795L103.43 26.5371L103.121 26.6916L102.605 27.104L101.781 27.5677L101.522 27.6709L101.213 27.8769L100.954 27.9285V27.9801L99.8732 28.4438L99.3054 28.547L98.9971 28.7015L98.4812 28.8046H98.1729L97.9685 28.9075H97.657L97.4007 28.9591H97.0892L96.8328 29.0107H96.0605L95.8009 28.9591H95.5965L95.3369 28.9075H95.1325L94.1526 28.7015H93.9481L93.7405 28.5986L93.4841 28.547L93.9968 26.2795Z" fill="#646464"/>
<path fill-rule="evenodd" clip-rule="evenodd" d="M106.418 16.9011L103.17 15.6132L103.326 15.2008L103.378 14.9432L103.43 14.7887V14.6343L103.533 14.0674V13.861L103.582 13.5521V12.7276L103.533 12.5728V12.3152L103.43 11.8515V11.6454L103.326 11.3878L103.274 11.1814L103.17 10.9241V10.8725L103.121 10.7693L103.069 10.5633L102.862 10.1512L102.758 9.99673L102.605 9.84195L102.553 9.58431L102.398 9.48113L102.294 9.27508H102.245L102.141 9.17222L102.038 9.01744L101.522 8.50216L101.317 8.39929L101.213 8.29578L101.058 8.19292H100.954L100.749 8.03847L100.645 7.98687L100.493 7.93528H100.389L100.233 7.88369L100.13 7.83242H99.8732L99.7175 7.78083H99.4092L99.3054 7.83242H99.049L98.8413 7.93528H98.7408L98.585 7.98687V8.03847L98.4293 8.09006L98.2767 8.19292L98.1729 8.24451L97.8647 8.45056L97.5532 8.7598L97.4006 8.86298L92.144 3.14329L92.8124 2.47355L94.6685 1.23661L95.1844 1.03056L95.6484 0.772923H95.749L96.1643 0.566875L97.657 0.206048L98.2248 0.154455L98.7408 0.0515931L99.2534 0H99.7694L100.645 0.102862H100.749L101.265 0.206048L101.781 0.257641L103.17 0.72133L104.51 1.3398L106.11 2.42196L106.83 3.0401L108.326 4.79232L108.378 4.89518L108.634 5.25568L108.891 5.7197L109.202 6.0802L110.026 7.88369L110.13 8.3477L110.438 9.27508L110.799 11.2849V11.8002L110.851 12.3152L110.799 12.7276V13.3973L110.747 13.9126L110.542 14.9948L110.49 15.5101L110.335 16.0253L110.231 16.5406L110.13 16.7467L110.026 17.1075L109.614 18.1381L106.418 16.9011Z" fill="#646464"/>
<path fill-rule="evenodd" clip-rule="evenodd" d="M89.9797 15.304H89.3599L88.1236 15.6132L86.2156 16.3345H86.1637L85.5991 16.3861L82.6593 17.2103H82.4549L81.7313 17.468L81.0109 17.6227L79.5702 18.138L79.1581 18.3441L78.7947 18.3957L75.7543 19.6323L75.7023 19.6839L70.0855 22.4663L69.4171 22.93L69.3132 22.9816L66.5811 24.8883L64.1604 27.001L63.9041 27.1555L62.0999 29.0105L61.584 29.6806L61.4282 29.7319L60.9123 30.5048L60.2958 31.2261L58.1834 34.6258L57.8719 35.2974L57.7194 35.5538L56.5318 38.3898V38.4385L55.6037 41.6346H55.5551L54.9872 44.9346L54.6789 49.0556L54.7276 51.8884L46.9465 52.096V47.3034L47.3099 44.1591V43.9028L48.1341 39.8305L48.186 39.7299L49.4223 35.8134L50.5028 33.3376L52.4108 29.8863L53.5952 28.186L53.9034 27.8768L54.627 26.8462L56.2235 25.0427L58.8518 22.5695L59.7799 21.8995L60.656 21.1265L63.4887 19.2202L66.4805 17.5712L70.2413 15.974L74.002 14.7887L74.1059 14.7371L78.0743 13.861L81.0628 13.5005H85.4434L86.1118 13.6034H86.1637L88.6915 14.4795L89.1036 14.7887L89.7201 15.0979L89.9797 15.304Z" fill="#646464"/>
<path fill-rule="evenodd" clip-rule="evenodd" d="M47.4105 60.4937V60.4418H47.6701L48.0822 60.3412H48.4424L49.1627 60.2374H50.0908L50.6067 60.1335H51.1746L51.7911 60.0297L53.1312 59.9778L56.0191 60.2374H56.7914L58.4917 60.4418H58.6961L68.4891 61.8858L69.4171 62.1421L71.3218 62.4536L77.5584 64.102L82.867 66.1106L85.4434 67.5026L86.5791 68.3787L88.0198 69.9233L88.6915 71.2634L88.9478 72.0356L89.1036 72.8598V73.9436L89.0517 74.2L85.8036 73.6354L82.4549 73.4277L82.2472 73.1713V73.1194L82.0428 72.9118L80.0829 71.6235L79.0024 71.0589L78.5384 70.9032L78.3826 70.7994L68.5929 67.1424L68.1808 67.0905L52.6672 62.658L47.5144 60.4937H47.4105Z" fill="#646464"/>
<path fill-rule="evenodd" clip-rule="evenodd" d="M85.8035 73.6354L89.0516 74.2L88.5876 76.3124L88.3313 76.8803L88.2794 77.1885L85.8035 82.7048L85.7029 82.8054L83.1752 87.3936L82.9708 87.6499L76.838 96.9756L76.7342 97.1833L66.2728 110.117L65.7568 110.581L65.2928 111.097L64.7282 111.558L64.2642 112.022L62.3562 113.466L61.8403 113.774L61.3763 114.138L60.2439 114.598L59.5722 114.806L57.7194 107.181L58.0276 107.025L58.232 106.869L58.4916 106.613L58.7999 106.405L60.2958 105.016H60.3477L61.6359 103.624L62.1518 103.16L63.6445 101.512L63.904 101.152L64.1604 100.892L67.2527 97.0275L67.4085 96.9756L79.5702 79.4567L79.6188 79.3042L81.4749 75.9522L81.9908 74.7679L82.0428 74.5115L82.1985 74.1513L82.2991 73.7879L82.4548 73.4277L85.8035 73.6354Z" fill="#646464"/>
<path fill-rule="evenodd" clip-rule="evenodd" d="M86.4752 28.0833H86.4233V28.2377L86.3195 28.4438L86.2157 28.5469L86.1637 28.7014V28.8559L86.0112 29.0106L85.651 29.8864L85.5991 30.0928L85.2357 30.917L84.7749 31.6902L84.4115 32.1539L83.8988 32.9775L83.6912 33.237V33.3376L83.5873 33.5453L83.1752 34.1132L83.0227 34.3695L82.867 34.7297L82.6593 34.9893L82.5587 35.2975L82.351 35.6058H82.2991L82.2472 35.8621L81.7832 36.6896L81.3711 37.822L81.3224 37.9259V38.0784L81.2186 38.338L81.1147 38.8539V39.0583L81.0109 39.4704V39.6781L81.0628 39.8306V39.9863L81.1147 40.1908V40.2946L81.1667 40.4503L81.2186 40.5542V40.7067L81.4749 40.9663V41.0669H81.5268L81.7313 41.2745L76.7861 44.9834L76.7342 44.9347L76.6304 44.8828L76.5265 44.5194L76.2183 44.1073L75.4979 42.1506L75.3422 40.7067V40.2427L75.446 39.4185V39.266L75.4979 38.8539L75.7023 37.9778L76.3221 36.3781L76.6304 35.7615L76.7861 35.6058L76.9905 35.2975L77.4026 34.5253L78.4345 33.237L78.6422 33.0294L78.6941 32.9255L79.2587 32.36L79.5183 32.0507L80.3425 31.2262L80.9103 30.8141V30.7625L81.4749 30.3504L81.7313 30.0928L82.2991 29.6807L82.6106 29.5259L83.1233 29.1135L83.3829 29.0106L84.5153 28.5985L84.7749 28.5469L85.0313 28.4438L85.8036 28.2377L85.9074 28.1861H86.1118L86.2157 28.1348H86.3195L86.3714 28.0833H86.4752Z" fill="#646464"/>
<path fill-rule="evenodd" clip-rule="evenodd" d="M79.2068 43.0787L81.6307 41.0669L81.8351 41.3784L81.9909 41.479L82.0947 41.5828L83.6393 42.407L83.9508 42.5109L84.3109 42.7185L84.6711 42.8191L84.723 42.871L88.8959 44.1073L89.3599 44.1592L89.6682 44.2631L92.2965 44.779L92.608 44.8828L93.1726 44.9348L94.2564 45.1392L94.821 45.1911L94.9768 45.243L97.7608 45.6551H98.0691L98.5331 45.7589L100.078 45.9115L100.493 46.0153H100.954L103.121 46.2716H103.738L104.41 46.3755H104.666L104.974 46.4274H105.386L105.594 46.4793H105.902L105.954 46.5312H106.11L105.542 54.2605H105.282L105.13 54.2085H104.254L103.686 54.1047H103.378L102.605 54.0009H102.294L100.493 53.7964L100.078 53.6926H99.565L93.6886 52.6607H93.4841L92.8644 52.5602L92.2965 52.3525L91.68 52.2486L91.1121 52.0961L90.4924 51.9923L89.9278 51.7879L89.308 51.684L87.8154 51.22L87.5039 51.1681L86.3714 50.756L85.7516 50.6003L84.8269 50.2401L84.6192 50.1882L81.939 49.0038H81.887L81.4749 48.7475L80.9103 48.4879L79.1062 47.3035L78.8985 47.0958L78.6422 46.9952L77.4546 45.8595L77.0944 45.4474L76.7861 44.9834L79.2068 43.0787Z" fill="#646464"/>
<path fill-rule="evenodd" clip-rule="evenodd" d="M109.459 37.4099H109.562L109.663 37.4618H109.715L109.819 37.5137H110.026L110.231 37.5657L110.335 37.6143H110.49L111.003 37.7701H111.107L111.159 37.822L111.263 37.8739L111.366 37.9778L111.675 38.1822L111.779 38.286L111.931 38.3379L112.191 38.5943L112.343 38.6462L112.499 38.802L112.551 38.9058L112.911 39.1621H112.963L113.015 39.266L113.171 39.4185L113.323 39.4704L114.043 40.1907L114.147 40.2427L114.355 40.3984L114.92 40.9663L115.231 41.1707L115.283 41.2745L115.335 41.3264L115.487 41.3784L115.643 41.5309L115.951 41.7385L116.055 41.8424V41.8911L116.26 41.943L116.364 42.0987L116.519 42.1506L116.62 42.3064L116.776 42.3551L116.88 42.4589L117.035 42.5108L117.344 42.7185H117.447L117.6 42.8191L117.652 42.871L113.583 48.6955V48.6436L113.427 48.5397L113.015 48.1277L112.551 47.7675L112.343 47.5598L112.191 47.3554L112.139 47.3035L111.675 46.6837L111.467 46.4793L111.366 46.2716L111.263 46.2197L111.159 46.0153L111.003 45.8076L110.902 45.6032L110.591 45.1911L110.542 45.0872L110.49 44.9347L110.335 44.727L110.026 44.0554L109.923 43.9029L109.767 43.5946L109.715 43.3869L109.51 42.9748L109.459 42.7185L109.254 42.3064L109.098 41.6347L108.995 41.4303L108.891 41.0669V40.8105L108.787 40.4503V40.0382L108.738 39.8825V39.73L108.686 39.5223V39.214L108.634 39.0583V39.0064L108.738 38.9058L108.787 38.6981L108.891 38.5943V38.3899L108.995 38.286L109.046 38.0784L109.098 37.9778L109.202 37.8739V37.7701L109.254 37.6663L109.303 37.6143L109.355 37.5137L109.407 37.4099H109.459Z" fill="#646464"/>
<path fill-rule="evenodd" clip-rule="evenodd" d="M115.643 45.7588L117.652 42.8708L117.807 42.9747L118.116 43.0785L118.22 43.1824L118.684 43.3349L118.787 43.3868L118.94 43.4906H118.992L119.044 43.5425H119.148L119.3 43.6431H119.404L119.56 43.747H119.664L119.764 43.7989H119.816L119.92 43.8508H120.024L120.176 43.9027L120.228 43.9546H120.384L120.436 44.0065L120.54 44.0552H120.592L120.692 44.1071H120.9L121.004 44.1591H121.156L121.26 44.211H121.312L121.516 44.3148H121.828L121.88 44.3667H122.292V44.4186H122.652L122.496 52.2485H121.928L121.828 52.1998H121.672L121.568 52.1479H121.364L121.26 52.096H121.052L120.952 52.044H120.692L120.54 51.9921H120.436L120.28 51.9402L120.176 51.8883H119.972L119.816 51.8364L119.715 51.7877H119.56L119.352 51.7358L119.248 51.6839L118.372 51.4243L118.22 51.3237L117.859 51.2199L117.704 51.116L117.447 51.0641L117.343 50.9603L117.139 50.9116L116.931 50.8078L116.776 50.7039L116.672 50.652H116.571L116.364 50.5482L116.159 50.3957L116.003 50.3437L115.796 50.188L115.591 50.1361L115.487 49.9836H115.384L115.231 49.8278L114.971 49.724L114.819 49.5715L114.611 49.4157L114.407 49.3119L114.303 49.2113L114.199 49.1594L114.043 49.0036L113.787 48.8479L113.583 48.6954L115.643 45.7588Z" fill="#646464"/>
<path fill-rule="evenodd" clip-rule="evenodd" d="M42.0014 90.2783L42.0533 90.6385L42.2058 90.9468L42.2577 91.3102L42.514 92.0305V92.4426L42.7217 93.163L42.8255 93.9872L42.9813 94.3993L43.0819 95.1748V95.5869L43.1857 95.9471L43.2896 96.8232V97.2353L43.3415 97.4916V97.6474L43.3901 98.0595V98.5235L43.494 99.3964V100.688L43.5459 101.1V102.953L43.494 103.42V104.861L43.3901 105.685V106.149L43.3415 106.613V107.129L43.2896 107.593V108.057L43.1857 108.521V108.982L43.0819 109.498V109.962L42.7217 112.178V112.334L42.2058 115.322L42.0533 115.786L42.0014 116.247L41.4854 118.259L41.4335 118.671L40.8657 118.619L40.353 118.411L40.6093 117.486L40.8137 116.97L42.0533 112.23V112.074L42.1539 111.766L42.2577 111.302L42.3096 110.838L42.514 109.858L42.566 109.397L42.6698 108.933L42.8255 107.541L42.9294 107.077L42.9813 106.561L43.0819 106.097V105.685L43.1857 104.809V104.293L43.2896 103.368V102.953L43.3415 102.44V98.9356L43.2896 98.5235V97.4916L43.1857 96.8232V96.4111L43.0819 95.999V95.6356L42.9813 94.8114L42.8775 94.3993L42.7217 93.163L42.514 92.4426L42.4654 92.0305L42.2577 91.3102L42.2058 90.9468L42.0533 90.6385L42.0014 90.2783Z" fill="#646464"/>
<path fill-rule="evenodd" clip-rule="evenodd" d="M40.8656 118.619L41.4335 118.671L41.1771 119.443V119.599L36.7447 131.809L35.9205 133.201V133.357L32.3635 139.178L31.8998 139.746L31.4873 140.366L27.7772 144.487L26.7976 145.363L26.6431 145.463L26.3339 145.775L25.2517 146.599L24.7364 146.907L23.7575 147.628L21.6444 148.763L19.4801 149.484L19.4285 149.536L17.7279 149.896L15.9241 150L14.8419 149.896H14.2234L13.0381 149.64L12.9865 149.588H12.9352L14.3782 144.642L15.1512 144.899L15.8725 145.003H16.182L16.8518 145.103L17.2639 145.051H17.6247L18.3976 144.951L19.9954 144.591L20.8712 144.227L21.2836 144.127L21.696 143.867L22.5721 143.455L24.8909 142.014L27.674 139.694L29.4775 137.838V137.786L29.8899 137.273L30.4052 136.758L33.8048 132.121L33.9087 132.069L37.465 125.68L39.7851 120.111L40.0414 119.235L40.0933 119.135L40.3529 118.411L40.8656 118.619Z" fill="#646464"/>
<path fill-rule="evenodd" clip-rule="evenodd" d="M13.7082 147.115L12.9353 149.588L11.956 149.328L10.3069 148.608L8.76077 147.68L6.95728 146.135L5.72035 144.743L5.35984 144.227L4.94742 143.766L2.78278 139.746L1.80381 137.169L1.64903 136.498L1.39139 135.829L1.23694 135.057L1.13375 134.798L1.08216 134.385L0.876109 133.665L0.257641 129.904V129.129L0.103186 128.356L0 122.587L0.618468 115.578L0.824841 114.702L0.876109 113.774L2.42228 107.385L9.89452 109.601L9.01841 112.846L8.91555 113.106L7.73021 119.187L7.26652 123.72L7.36938 131.244L7.47256 131.861L7.52416 132.533L7.67894 133.409V133.717L8.03944 135.417L8.24549 135.933L8.81269 137.994L9.01841 138.406L9.17319 138.922L9.53402 139.59L9.58561 139.746L9.99771 140.57L10.2038 140.878L10.4101 141.29L10.7194 141.602L10.9251 141.91L11.1831 142.218L11.3891 142.527L11.6471 142.786L11.956 143.043L12.162 143.299L12.4713 143.559L13.0381 143.867L13.1413 144.023L13.2958 144.126L13.605 144.227L14.1719 144.539L14.5327 144.691L13.7082 147.115Z" fill="#646464"/>
<path fill-rule="evenodd" clip-rule="evenodd" d="M6.13246 108.469L2.4223 107.385L3.50446 103.829H3.55573L5.20509 99.5L5.4624 99.0392L5.56591 98.7277L6.33884 97.0794L6.59648 96.6673L7.11176 95.5348L7.57545 94.8112L7.93628 94.0389L10.2038 90.4826L10.6162 89.9699L10.7194 89.8661L11.6471 88.5259L15.7697 83.9929L15.8725 83.941L16.8518 83.0129L17.4187 82.6008L17.8311 82.1887H17.9856L18.5009 81.7247L20.0983 80.6409L22.5206 79.3527V79.3041L24.2212 78.6324L24.7881 78.4766L25.2005 78.3241H25.4065L27.983 77.8601H28.8078L30.8693 78.1165L32.0546 78.8401L32.9288 79.5085L33.2403 79.8687H33.2922L32.7762 79.9725L31.3329 80.5371L30.9208 80.7967L30.7657 80.8486L30.5084 80.9005L30.1476 81.053L29.6839 81.1569L29.3743 81.3645L28.9623 81.5171L28.8078 81.6209H28.5502L28.1893 81.8772L27.7772 82.033L27.004 82.4451L26.9008 82.5489L26.2827 83.0129L25.8706 83.2174L25.5094 83.5289L25.1486 83.7852L25.0973 83.8371L24.6849 84.0935L23.5515 85.1253V85.1772L21.9537 86.7218L20.047 88.938L19.7378 89.454L19.2738 89.918L19.1709 90.1743L18.9133 90.4339L17.8311 92.0304L17.4187 92.595L16.7486 93.8345L16.6458 93.9351L14.5843 97.5953L14.4811 97.9555L10.9251 106.353V106.405L10.6162 107.181L9.89454 109.601L6.13246 108.469Z" fill="#646464"/>
<path fill-rule="evenodd" clip-rule="evenodd" d="M140.586 90.2783L141.099 92.0305L141.151 92.4426L141.359 93.163L141.462 93.9872L141.563 94.3993L141.719 95.5869L141.823 95.9471V96.4111L141.875 96.8232V97.2353L141.923 97.4916L141.975 97.6474L142.027 98.0595V98.5235L142.131 99.3964V104.861L142.027 105.685V106.149L141.875 107.593V108.057L141.823 108.521V108.982L141.563 110.426V110.942L141.359 111.87V112.178L141.307 112.334L141.255 112.898L141.05 113.826L140.998 114.342L140.379 117.279L140.223 117.743L140.019 118.671L139.503 118.619L138.987 118.411L139.09 117.898L139.554 116.506L139.658 116.042L139.814 115.578L139.915 115.062L140.07 114.598L140.174 114.138L140.483 113.21L140.534 112.694L140.69 112.23V112.074L141.563 107.077V106.561L141.667 106.097L141.823 104.809V103.829L141.875 103.368V102.953L141.923 102.44V101.616L141.975 101.1V99.8117L141.923 99.3964V98.9356L141.875 98.5235V97.4916L141.823 97.2353V96.4111L141.719 95.999L141.462 93.9872L141.359 93.627L141.255 92.8547L140.586 90.2783Z" fill="#646464"/>
<path fill-rule="evenodd" clip-rule="evenodd" d="M139.503 118.619L140.019 118.671L139.814 119.443V119.599L137.647 126.348L137.543 126.504L137.338 127.172L134.97 132.533L134.554 133.201L134.506 133.357L131.413 138.562L127.857 143.043L124.92 145.775L122.908 147.268L120.228 148.763L118.064 149.484L118.015 149.536L116.312 149.896L114.559 150L113.427 149.896H112.807L111.675 149.64L111.623 149.588H111.571L113.015 144.642L113.787 144.899L114.459 145.003H114.819L115.487 145.103L115.848 145.051H116.26L116.983 144.951H117.035L117.395 144.899L119.044 144.435L119.456 144.227L119.868 144.127L121.672 143.199L122.084 142.89L122.6 142.631L122.908 142.426L123.012 142.322L124.404 141.291L124.816 140.878L125.332 140.518L126.257 139.694L126.724 139.178L127.185 138.766L127.6 138.302L128.113 137.838V137.786L130.793 134.541L132.442 132.121L132.494 132.069L135.998 125.832L138.987 118.411L139.503 118.619Z" fill="#646464"/>
<path fill-rule="evenodd" clip-rule="evenodd" d="M112.343 147.115L111.571 149.588L110.542 149.328L108.891 148.608L106.934 147.319L106.006 146.547L105.13 145.671L104.77 145.207L104.306 144.743L103.997 144.227L103.582 143.766L102.862 142.682L102.81 142.478L101.677 140.314L100.389 137.169L100.233 136.446L100.029 135.777L99.8733 135.057L99.7694 134.798L98.7927 129.08L98.8414 118.259L98.9972 117.33L99.0491 116.454L99.9771 111.302L100.078 111.097L100.954 107.385L108.43 109.601L107.554 112.846V113.054L106.262 119.855V119.907L106.11 121.451L105.954 122.175V131.244L106.21 133.097L106.314 133.409V133.717L106.47 134.233L106.522 134.849L106.674 135.365L106.778 135.933L106.986 136.446L107.087 137.014L107.294 137.478L107.602 138.406L108.118 139.59L108.222 139.746L108.378 140.158L108.839 140.878L109.046 141.29L109.303 141.602L109.51 141.91L110.026 142.527L110.799 143.299L111.107 143.559L111.675 143.867L111.727 144.023L113.119 144.691L112.343 147.115Z" fill="#646464"/>
<path fill-rule="evenodd" clip-rule="evenodd" d="M104.77 108.469L100.954 107.385L102.089 103.829L103.997 99.0392L104.202 98.7277L104.51 97.9035L106.986 93.2667L107.758 92.1342L107.862 91.8227L109.202 89.9699L109.303 89.8661L112.755 85.5893L114.407 83.9929H114.459L115.487 83.0129L116.055 82.6008L116.467 82.1887H116.62L117.139 81.7247L117.704 81.3645L118.22 80.9524L118.736 80.6409L118.787 80.589L121.104 79.3527L121.156 79.3041L122.856 78.6324L123.424 78.4766L123.836 78.3241H123.992L124.609 78.2203L125.177 78.0645L125.744 78.0126L126.309 77.912H126.62L126.877 77.8601L129.093 78.0645L129.505 78.1684L131.102 79.1483L131.929 79.9206L131.413 80.0244L129.969 80.5371L129.401 80.8486L128.733 81.105L128.321 81.2088L127.549 81.5171L127.393 81.6209L127.185 81.6728L126.773 81.9292L126.001 82.2893L123.733 83.7852V83.8371L123.32 84.0935L122.6 84.7652L122.136 85.1253L122.084 85.1772L121.828 85.4855L121.364 85.8976L120.64 86.6699L120.592 86.7737L119.044 88.474L118.736 88.938L118.271 89.454L117.963 89.918L117.704 90.1743L117.548 90.4826L117.139 90.9466L116.828 91.5144L116.467 92.0304H116.415L115.335 93.8345L115.231 93.9351L114.251 95.6354L114.147 95.895L113.891 96.3071L112.035 100.016L108.43 109.601L104.77 108.469Z" fill="#646464"/>
<path fill-rule="evenodd" clip-rule="evenodd" d="M98.8414 80.2808V80.4884L99.049 81.9291V82.033L98.6889 83.4769V83.5289L98.2248 84.7651V84.9177L97.657 86.2059V86.2578L96.5732 88.5778L96.5245 88.8342L95.2883 91.2581L95.1844 91.3619L93.8443 93.8864L93.7405 94.1428L93.1726 95.1227V95.1746L92.5561 96.1513L92.4523 96.4109L91.9882 97.2351L91.7319 97.5953L91.0602 98.8316L89.4637 101.204L89.3599 101.408L87.2475 104.604L87.1437 104.809L82.0947 111.766L82.0428 111.817L77.6103 117.434H77.5584L73.538 114.394L77.354 108.521L77.4026 108.469L84.1033 98.0074L84.2071 97.7997L84.7749 96.9755L85.0313 96.6673L86.5791 94.2466L86.8354 93.9351L88.1236 92.0304L88.1755 91.9784L90.6481 88.5259L90.7 88.474L91.3717 87.6498L91.8844 86.8256L92.4003 86.3097L92.4523 86.1053L93.0201 85.333L93.2764 85.1772L93.588 84.6613L94.1526 84.0935V84.0415L96.0605 81.9291L96.5245 81.569L97.1411 80.9524L97.3487 80.8486L98.4812 80.4365L98.7927 80.2808H98.8414Z" fill="#646464"/>
<path d="M98.8414 80.2808V80.4884L99.0491 81.9291V82.033L98.6889 83.4769V83.5289L98.2249 84.7651V84.9177L97.657 86.2059V86.2578L96.5732 88.5778L96.5246 88.8342L95.2883 91.2581L95.1844 91.3619L93.8443 93.8864L93.7405 94.1428L93.1726 95.1227V95.1746L92.5561 96.1513L92.4523 96.4109L91.9883 97.2351L91.7319 97.5953L91.0602 98.8316L89.4638 101.204L89.3599 101.408L87.2475 104.604L87.1437 104.809L82.0947 111.766L82.0428 111.817L81.3224 112.797" fill="#646464"/>
<path d="M98.8414 80.2808V80.4884L99.0491 81.9291V82.033L98.6889 83.4769V83.5289L98.2249 84.7651V84.9177L97.657 86.2059V86.2578L96.5732 88.5778L96.5246 88.8342L95.2883 91.2581L95.1844 91.3619L93.8443 93.8864L93.7405 94.1428L93.1726 95.1227V95.1746L92.5561 96.1513L92.4523 96.4109L91.9883 97.2351L91.7319 97.5953L91.0602 98.8316L89.4638 101.204L89.3599 101.408L87.2475 104.604L87.1437 104.809L82.0947 111.766L82.0428 111.817L81.3224 112.797" stroke="#424242" stroke-width="0.1212" stroke-miterlimit="10" stroke-linecap="square"/>
<path d="M81.3224 112.797L77.6103 117.434H77.5584" fill="#646464"/>
<path d="M81.3224 112.797L77.6103 117.434H77.5584" stroke="#424242" stroke-width="0.1212" stroke-miterlimit="10" stroke-linecap="square"/>
<path d="M73.538 114.394L77.354 108.521L77.4026 108.469L84.1033 98.0074L84.2071 97.7997L84.7749 96.9755L85.0313 96.6673L86.5791 94.2466L86.8354 93.9351L88.1236 92.0304L88.1755 91.9785L90.6481 88.5259L90.7 88.474L91.3717 87.6498L91.8844 86.8256L92.4003 86.3097L92.4523 86.1053L93.0201 85.333L93.2764 85.1773L93.588 84.6613L94.1526 84.0935V84.0416L96.0605 81.9292L96.5245 81.569L97.1411 80.9525L97.3487 80.8486L97.7608 80.6929" fill="#646464"/>
<path d="M73.538 114.394L77.354 108.521L77.4026 108.469L84.1033 98.0074L84.2071 97.7997L84.7749 96.9755L85.0313 96.6673L86.5791 94.2466L86.8354 93.9351L88.1236 92.0304L88.1755 91.9785L90.6481 88.5259L90.7 88.474L91.3717 87.6498L91.8844 86.8256L92.4003 86.3097L92.4523 86.1053L93.0201 85.333L93.2764 85.1773L93.588 84.6613L94.1526 84.0935V84.0416L96.0605 81.9292L96.5245 81.569L97.1411 80.9525L97.3487 80.8486L97.7608 80.6929" stroke="#424242" stroke-width="0.1212" stroke-miterlimit="10" stroke-linecap="square"/>
<path d="M97.7609 80.6929L98.4812 80.4365L98.7927 80.2808H98.8414" fill="#646464"/>
<path d="M97.7609 80.6929L98.4812 80.4365L98.7927 80.2808H98.8414" stroke="#424242" stroke-width="0.1212" stroke-miterlimit="10" stroke-linecap="square"/>
<path fill-rule="evenodd" clip-rule="evenodd" d="M75.5499 115.887L77.5584 117.434L70.4976 124.852L70.397 124.904L68.2327 126.4L67.2009 126.864L66.1171 127.068H65.9127V125.472L65.7569 123.927L66.1171 123.824L66.4286 123.515L67.0451 122.999L67.8174 122.175L67.9212 122.123L70.397 118.927L70.7572 118.567L73.5381 114.394L75.5499 115.887Z" fill="#646464"/>
<path d="M77.5584 117.434L70.4976 124.852L70.397 124.904L68.2327 126.4L67.2009 126.864L66.1171 127.068H65.9127" fill="#646464"/>
<path d="M77.5584 117.434L70.4976 124.852L70.397 124.904L68.2327 126.4L67.2009 126.864L66.1171 127.068H65.9127" stroke="#424242" stroke-width="0.1212" stroke-miterlimit="10" stroke-linecap="square"/>
<path d="M65.7569 123.927L66.1171 123.824L66.4286 123.515L67.0451 122.999L67.8174 122.175L67.9212 122.123L70.397 118.927L70.7572 118.567L73.5381 114.394" fill="#646464"/>
<path d="M65.7569 123.927L66.1171 123.824L66.4286 123.515L67.0451 122.999L67.8174 122.175L67.9212 122.123L70.397 118.927L70.7572 118.567L73.5381 114.394" stroke="#424242" stroke-width="0.1212" stroke-miterlimit="10" stroke-linecap="square"/>
<path fill-rule="evenodd" clip-rule="evenodd" d="M65.9126 125.472V127.068H65.2928L64.8807 127.016L64.4686 126.916H64.0566L61.2238 126.556L61.0161 126.504L57.2553 126.04L56.9958 125.936H56.5837L52.719 125.368L52.3589 125.267L48.6468 124.803L48.5462 124.751L42.8255 124.08L42.2057 123.927L41.4854 123.823H40.8656L40.1453 123.72H40.0414L39.5255 123.616L36.073 123.256L35.609 123.155H35.0963L34.6323 123.103L34.2202 122.999H33.4966L33.1364 122.947H32.8281L32.0545 122.792H31.5389H32.2603L33.1364 122.947H33.4966L33.8048 122.999L62.2524 124.08L62.8203 124.031H63.7483L64.2123 123.979H64.5725L64.9846 123.927H65.7569L65.9126 125.472Z" fill="#646464"/>
<path d="M65.9127 127.068H65.2929L64.8808 127.016L64.4687 126.916H64.0566L61.2239 126.556L61.0162 126.504L57.2554 126.04L56.9958 125.936H56.5837L52.7191 125.368L52.3589 125.267L48.6468 124.803L48.5462 124.751L42.8256 124.08L42.2058 123.927L41.4854 123.823H40.8657L40.1453 123.72H40.0415L39.5255 123.616L36.073 123.256L35.609 123.155H35.0963L34.6323 123.103L34.2202 122.999" fill="#646464"/>
<path d="M65.9127 127.068H65.2929L64.8808 127.016L64.4687 126.916H64.0566L61.2239 126.556L61.0162 126.504L57.2554 126.04L56.9958 125.936H56.5837L52.7191 125.368L52.3589 125.267L48.6468 124.803L48.5462 124.751L42.8256 124.08L42.2058 123.927L41.4854 123.823H40.8657L40.1453 123.72H40.0415L39.5255 123.616L36.073 123.256L35.609 123.155H35.0963L34.6323 123.103L34.2202 122.999" stroke="#424242" stroke-width="0.1212" stroke-miterlimit="10" stroke-linecap="square"/>
<path d="M34.2202 122.999H33.4966L33.1364 122.947H32.8281L32.0545 122.792H31.5389H32.2603L33.1364 122.947H33.4966L33.8048 122.999L56.0191 124.031" fill="#646464"/>
<path d="M34.2202 122.999H33.4966L33.1364 122.947H32.8281L32.0545 122.792H31.5389H32.2603L33.1364 122.947H33.4966L33.8048 122.999L56.0191 124.031" stroke="#424242" stroke-width="0.1212" stroke-miterlimit="10" stroke-linecap="square"/>
<path d="M56.0191 124.031L62.2525 124.08L62.8203 124.031H63.7483L64.2123 123.979H64.5725L64.9846 123.927H65.7569" fill="#646464"/>
<path d="M56.0191 124.031L62.2525 124.08L62.8203 124.031H63.7483L64.2123 123.979H64.5725L64.9846 123.927H65.7569" stroke="#424242" stroke-width="0.1212" stroke-miterlimit="10" stroke-linecap="square"/>
<path fill-rule="evenodd" clip-rule="evenodd" d="M29.5807 118.774L29.5291 118.671L29.4775 118.619L29.2715 117.587L29.1683 117.279L29.2199 117.175L29.3231 116.763L29.3743 116.302V116.198L29.5291 115.786L29.6839 115.218V115.166L30.4052 113.414L30.4568 113.158L30.7144 112.746L31.3329 111.302H31.3845L31.7966 110.529L31.8482 110.374L33.9087 106.769L34.0644 106.561L34.5804 105.633L39.6293 98.624L39.9376 98.3157L41.6898 95.9989L41.8975 95.8431L43.9061 93.4192L50.3503 86.5693L50.4509 86.5174L53.7509 83.4251L55.0391 82.4451L55.6037 81.9292L57.7713 80.4366L59.1082 79.7649L60.3996 79.5085H60.5002V80.2808L60.6041 81.0531L60.2439 81.105L60.0881 81.1569L59.8318 81.3646L59.5235 81.5171L58.4397 82.3932L56.8433 84.1454L56.7914 84.2493L55.3474 86.0015L54.9872 86.5693L54.8834 86.6699L53.2869 88.9381L53.235 89.0419L51.6385 91.3101L51.5347 91.5145L49.9382 93.9351L49.8344 94.039L48.186 96.6154V96.6673L46.4825 99.1918L46.3819 99.3962L39.0615 109.961L38.9609 110.169L38.4969 110.682L37.929 111.457L37.6208 111.766L37.0529 112.59L35.0963 114.806L34.9925 114.959L34.5804 115.322L34.1163 115.887L31.8482 117.898L31.1269 118.411L31.0237 118.463L30.7144 118.567L29.9415 118.671H29.7355L29.5807 118.723V118.774Z" fill="#646464"/>
<path d="M29.5807 118.774L29.5291 118.671L29.4775 118.619L29.2715 117.587L29.1683 117.279L29.2199 117.175L29.3231 116.763L29.3743 116.302V116.198L29.5291 115.786L29.6839 115.218V115.166L30.4052 113.414L30.4568 113.158L30.7144 112.745L31.3329 111.302H31.3845L31.7966 110.529L31.8482 110.373L33.9087 106.768L34.0644 106.561L34.5804 105.633L39.6293 98.6239L39.9376 98.3156L41.6898 95.9988L41.8975 95.843L43.9061 93.4191L45.4019 91.7708" fill="#646464"/>
<path d="M29.5807 118.774L29.5291 118.671L29.4775 118.619L29.2715 117.587L29.1683 117.279L29.2199 117.175L29.3231 116.763L29.3743 116.302V116.198L29.5291 115.786L29.6839 115.218V115.166L30.4052 113.414L30.4568 113.158L30.7144 112.745L31.3329 111.302H31.3845L31.7966 110.529L31.8482 110.373L33.9087 106.768L34.0644 106.561L34.5804 105.633L39.6293 98.6239L39.9376 98.3156L41.6898 95.9988L41.8975 95.843L43.9061 93.4191L45.4019 91.7708" stroke="#424242" stroke-width="0.1212" stroke-miterlimit="10" stroke-linecap="square"/>
<path d="M45.4019 91.7708L50.3503 86.5693L50.4509 86.5174L53.7509 83.4251L55.0391 82.4451L55.6037 81.9292L57.7713 80.4366L59.1082 79.7649L60.3996 79.5085H60.5002" fill="#646464"/>
<path d="M45.4019 91.7708L50.3503 86.5693L50.4509 86.5174L53.7509 83.4251L55.0391 82.4451L55.6037 81.9292L57.7713 80.4366L59.1082 79.7649L60.3996 79.5085H60.5002" stroke="#424242" stroke-width="0.1212" stroke-miterlimit="10" stroke-linecap="square"/>
<path d="M60.6041 81.0532L60.2439 81.1051L60.0881 81.1571L59.8318 81.3647L59.5235 81.5172L58.4398 82.3933L56.8433 84.1456L56.7914 84.2494L55.3474 86.0016L54.9872 86.5695L54.8834 86.6701L53.2869 88.9382L53.235 89.042L51.6386 91.3102L51.5347 91.5146L49.9383 93.9353L49.8344 94.0391L48.186 96.6155V96.6674L46.4825 99.1919L46.3819 99.3964L39.0615 109.962L38.9609 110.169L38.4969 110.682L38.2892 110.993" fill="#646464"/>
<path d="M60.6041 81.0532L60.2439 81.1051L60.0881 81.1571L59.8318 81.3647L59.5235 81.5172L58.4398 82.3933L56.8433 84.1456L56.7914 84.2494L55.3474 86.0016L54.9872 86.5695L54.8834 86.6701L53.2869 88.9382L53.235 89.042L51.6386 91.3102L51.5347 91.5146L49.9383 93.9353L49.8344 94.0391L48.186 96.6155V96.6674L46.4825 99.1919L46.3819 99.3964L39.0615 109.962L38.9609 110.169L38.4969 110.682L38.2892 110.993" stroke="#424242" stroke-width="0.1212" stroke-miterlimit="10" stroke-linecap="square"/>
<path d="M38.2892 110.993L37.929 111.457L37.6208 111.766L37.0529 112.59L35.0963 114.806L34.9924 114.959L34.5804 115.322L34.1163 115.887L31.8482 117.898L31.1269 118.411L31.0237 118.463L30.7144 118.567L29.9415 118.671H29.7355L29.5807 118.723V118.775" fill="#646464"/>
<path d="M38.2892 110.993L37.929 111.457L37.6208 111.766L37.0529 112.59L35.0963 114.806L34.9924 114.959L34.5804 115.322L34.1163 115.887L31.8482 117.898L31.1269 118.411L31.0237 118.463L30.7144 118.567L29.9415 118.671H29.7355L29.5807 118.723V118.775" stroke="#424242" stroke-width="0.1212" stroke-miterlimit="10" stroke-linecap="square"/>
<path fill-rule="evenodd" clip-rule="evenodd" d="M60.5002 80.2808V79.5085L60.8118 79.5605H61.1719L61.3764 79.6124H61.6846L61.9961 79.6643H62.2525L62.564 79.713H63.2843L63.5926 79.7649H63.9041L64.2124 79.8168H64.5725L64.9327 79.8687H65.5525L66.2728 79.9726H67.613L67.9731 80.0245H68.2814L68.5929 80.0764H69.6215L69.933 80.1283H70.2413L70.4976 80.177H71.1693L71.4776 80.2289H73.4375L73.5381 80.2808H76.6304H73.5381L73.4375 80.3327H71.4776L71.1693 80.3847H70.4976L70.2413 80.4366H69.2613L68.9531 80.4885H68.5929L68.2814 80.5372H66.9413L66.633 80.5891H66.2728L65.9127 80.641H65.241L64.5725 80.7448H64.2124L63.9041 80.7968H62.9241L62.564 80.8487H62.2525L61.6846 80.9525H61.3764L61.1719 81.0044H60.8118L60.5002 81.0531V80.2808Z" fill="#646464"/>
<path d="M60.5002 79.5085L60.8118 79.5605H61.1719L61.3764 79.6124H61.6846L61.9961 79.6643H62.2525L62.564 79.713H63.2843L63.5926 79.7649H63.9041L64.2124 79.8168H64.5725L64.9327 79.8687H65.5525L66.2728 79.9726H67.613L67.9731 80.0245H68.2814L68.5929 80.0764H69.6215L69.933 80.1283H70.2413L70.4976 80.177H71.1693L71.4776 80.2289H73.4375L73.5381 80.2808H76.0139" fill="#646464"/>
<path d="M60.5002 79.5085L60.8118 79.5605H61.1719L61.3764 79.6124H61.6846L61.9961 79.6643H62.2525L62.564 79.713H63.2843L63.5926 79.7649H63.9041L64.2124 79.8168H64.5725L64.9327 79.8687H65.5525L66.2728 79.9726H67.613L67.9731 80.0245H68.2814L68.5929 80.0764H69.6215L69.933 80.1283H70.2413L70.4976 80.177H71.1693L71.4776 80.2289H73.4375L73.5381 80.2808H76.0139" stroke="#424242" stroke-width="0.1212" stroke-miterlimit="10" stroke-linecap="square"/>
<path d="M76.0139 80.2808H76.6304H73.538L73.4375 80.3327H71.4776L71.1693 80.3846H70.4976L70.2413 80.4365H69.2613L68.9531 80.4884H68.5929L68.2814 80.5371H66.9413L66.633 80.589H66.2728L65.9127 80.6409H65.241" fill="#646464"/>
<path d="M76.0139 80.2808H76.6304H73.538L73.4375 80.3327H71.4776L71.1693 80.3846H70.4976L70.2413 80.4365H69.2613L68.9531 80.4884H68.5929L68.2814 80.5371H66.9413L66.633 80.589H66.2728L65.9127 80.6409H65.241" stroke="#424242" stroke-width="0.1212" stroke-miterlimit="10" stroke-linecap="square"/>
<path d="M65.241 80.6411L64.5725 80.7449H64.2124L63.9041 80.7969H62.9241L62.564 80.8488H62.2525L61.6846 80.9526H61.3764L61.1719 81.0045H60.8118L60.5002 81.0532" fill="#646464"/>
<path d="M65.241 80.6411L64.5725 80.7449H64.2124L63.9041 80.7969H62.9241L62.564 80.8488H62.2525L61.6846 80.9526H61.3764L61.1719 81.0045H60.8118L60.5002 81.0532" stroke="#424242" stroke-width="0.1212" stroke-miterlimit="10" stroke-linecap="square"/>
<path fill-rule="evenodd" clip-rule="evenodd" d="M61.8403 87.7019L62.9241 88.1659L63.3881 88.578L64.2123 89.9701L64.4167 90.4341L64.7282 91.3621L65.2928 94.6589V98.9356L63.2843 113.362V113.774L63.1285 115.218V118.103H63.1804L62.8203 114.29L62.6126 113.362L62.512 112.434L61.4282 108.209L61.3763 107.697L60.14 103.005L60.0881 102.492L59.9356 102.077L59.2639 98.3158L59.212 97.2872L59.1082 96.8232V96.4111L59.0076 95.3792V93.9872L59.2639 92.0305V91.5665L59.8318 89.7105L60.3477 88.7338L60.7598 88.2178L61.8403 87.7019Z" fill="#646464"/>
<path d="M61.8403 87.7019L62.9241 88.1659L63.3881 88.578L64.2123 89.9701L64.4167 90.4341L64.7282 91.3621L65.2929 94.6589V98.9356L63.2843 113.362V113.774L63.1285 115.218V118.103H63.1805L62.8203 114.29L62.6126 113.362L62.512 112.434L62.1518 110.993" fill="#646464"/>
<path d="M61.8403 87.7019L62.9241 88.1659L63.3881 88.578L64.2123 89.9701L64.4167 90.4341L64.7282 91.3621L65.2929 94.6589V98.9356L63.2843 113.362V113.774L63.1285 115.218V118.103H63.1805L62.8203 114.29L62.6126 113.362L62.512 112.434L62.1518 110.993" stroke="#424242" stroke-width="0.1212" stroke-miterlimit="10" stroke-linecap="square"/>
<path d="M62.1518 110.993L61.4282 108.209L61.3763 107.697L60.14 103.005L60.0881 102.492L59.9356 102.077L59.2639 98.3158L59.212 97.2872L59.1082 96.8232V96.4111L59.0076 95.3792V93.9872L59.2639 92.0305V91.5665L59.8318 89.7105L60.3477 88.7338L60.7598 88.2178L61.8403 87.7019" fill="#646464"/>
<path d="M62.1518 110.993L61.4282 108.209L61.3763 107.697L60.14 103.005L60.0881 102.492L59.9356 102.077L59.2639 98.3158L59.212 97.2872L59.1082 96.8232V96.4111L59.0076 95.3792V93.9872L59.2639 92.0305V91.5665L59.8318 89.7105L60.3477 88.7338L60.7598 88.2178L61.8403 87.7019" stroke="#424242" stroke-width="0.1212" stroke-miterlimit="10" stroke-linecap="square"/>
<path fill-rule="evenodd" clip-rule="evenodd" d="M108.326 67.4507L109.459 67.9147L110.026 68.4825L110.542 69.151L112.139 72.4478L113.219 75.9003L113.323 76.52L113.583 77.2404L113.943 79.3528L114.147 80.0245L117.24 109.858L117.704 112.022L107.554 79.2003L107.294 77.8082L107.242 77.1366L106.986 75.7478L106.726 72.0876L107.087 69.151L107.346 68.3787L108.326 67.4507Z" fill="#646464"/>
<path d="M108.326 67.4507L109.458 67.9147L110.026 68.4825L110.542 69.151L112.139 72.4478L113.219 75.9003L113.323 76.52L113.583 77.2404L113.943 79.3528L114.147 80.0245L117.24 109.858L117.704 112.022L114.819 101.664L114.559 101.048" fill="#646464"/>
<path d="M108.326 67.4507L109.458 67.9147L110.026 68.4825L110.542 69.151L112.139 72.4478L113.219 75.9003L113.323 76.52L113.583 77.2404L113.943 79.3528L114.147 80.0245L117.24 109.858L117.704 112.022L114.819 101.664L114.559 101.048" stroke="#424242" stroke-width="0.1212" stroke-miterlimit="10" stroke-linecap="square"/>
<path d="M114.559 101.048L109.767 87.4941L107.294 77.8082L107.242 77.1366L106.986 75.7478L106.726 72.0876L107.087 69.151L107.346 68.3787L108.326 67.4507" fill="#646464"/>
<path d="M114.559 101.048L109.767 87.4941L107.294 77.8082L107.242 77.1366L106.986 75.7478L106.726 72.0876L107.087 69.151L107.346 68.3787L108.326 67.4507" stroke="#424242" stroke-width="0.1212" stroke-miterlimit="10" stroke-linecap="square"/>
<path fill-rule="evenodd" clip-rule="evenodd" d="M97.5012 58.6928L97.8646 57.5571L98.1729 57.145L98.5331 56.7849L98.8933 56.5253L99.6169 56.1651L100.029 55.9087L100.389 55.8049L100.749 55.6492L101.161 55.6005L101.522 55.4447L103.017 55.2371H106.47L111.418 56.0126L111.779 56.1651L117.963 57.2489H118.736L119.508 57.3527H121.776H121.004L106.006 61.2173L104.874 61.3698H104.51L103.738 61.4737H102.605L101.833 61.3698H101.47L101.058 61.266L100.697 61.2173L99.1528 60.6495L98.7407 60.4418L98.3254 60.1335L97.9685 59.7214L97.5012 58.6928Z" fill="#646464"/>
<path d="M97.5012 58.6928L97.8646 57.5571L98.1729 57.145L98.5331 56.7849L98.8933 56.5253L99.6169 56.1651L100.029 55.9087L100.389 55.8049L100.749 55.6492L101.161 55.6005L101.522 55.4447L103.017 55.2371H106.47L111.418 56.0126L111.779 56.1651L117.963 57.2489H118.736L119.508 57.3527H121.776H121.004L116.107 58.3294" fill="#646464"/>
<path d="M97.5012 58.6928L97.8646 57.5571L98.1729 57.145L98.5331 56.7849L98.8933 56.5253L99.6169 56.1651L100.029 55.9087L100.389 55.8049L100.749 55.6492L101.161 55.6005L101.522 55.4447L103.017 55.2371H106.47L111.418 56.0126L111.779 56.1651L117.963 57.2489H118.736L119.508 57.3527H121.776H121.004L116.107 58.3294" stroke="#424242" stroke-width="0.1212" stroke-miterlimit="10" stroke-linecap="square"/>
<path d="M116.107 58.3293L106.006 61.2173L104.874 61.3698H104.51L103.738 61.4736H102.605L101.833 61.3698H101.47L101.058 61.2659L100.697 61.2173L99.1528 60.6494L98.7407 60.4417L98.3254 60.1335L97.9685 59.7214L97.5012 58.6928" fill="#646464"/>
<path d="M116.107 58.3293L106.006 61.2173L104.874 61.3698H104.51L103.738 61.4736H102.605L101.833 61.3698H101.47L101.058 61.2659L100.697 61.2173L99.1528 60.6494L98.7407 60.4417L98.3254 60.1335L97.9685 59.7214L97.5012 58.6928" stroke="#424242" stroke-width="0.1212" stroke-miterlimit="10" stroke-linecap="square"/>
</g>
<defs>
<clipPath id="clip0_11_248">
<rect width="142.131" height="150" fill="white"/>
</clipPath>
</defs>
</svg>
