<svg width="158" height="150" viewBox="0 0 158 150" fill="none" xmlns="http://www.w3.org/2000/svg">
<path d="M78.5438 5.81812L27.9291 40.409V52.8874C28.7459 52.7134 29.5628 52.5393 30.3797 52.3653C31.3558 52.1573 32.3319 51.9491 33.308 51.7412C33.8976 51.6156 34.4872 51.4904 35.0768 51.3648L33.308 50.2575V47.563L38.9253 50.5443C39.4946 50.4231 40.0641 50.3024 40.6334 50.1812L33.308 44.6526V43.6365L34.4807 42.8238L44.5435 49.3482C44.8217 49.2889 45.0998 49.2291 45.378 49.1698L36.6625 41.3106L38.5778 39.9828L49.2873 48.3376C49.3689 48.3202 49.4505 48.3027 49.532 48.2854L40.5368 38.6247L42.4762 37.2797L52.719 46.8173L44.2949 36.019L46.2484 34.6647L55.2741 44.6737L47.9977 33.4515L49.9551 32.0948L58.0052 42.7615L51.7014 30.8839L53.6548 29.5297L60.893 41.094L55.4634 28.2759L57.4044 26.9294L63.9155 39.6844L59.3455 25.5837L61.2639 24.2544L67.0496 38.5436L63.4176 22.7606L65.2971 21.4578L70.2701 37.681L67.7633 19.7474L69.5828 18.4858L73.5544 37.1021L72.4885 16.4716L74.216 15.2739L76.8762 36.8114L77.731 12.8365L78.5438 12.2732L79.3565 12.8365L80.2113 36.8114L82.8715 15.2739L84.599 16.4716L83.5331 37.1021L87.5047 18.4858L89.3242 19.7474L86.8175 37.681L91.7904 21.4578L93.6699 22.7606L90.038 38.5436L95.8236 24.2544L97.7421 25.5837L93.172 39.6844L99.6831 26.9294L101.624 28.2759L96.1945 41.094L103.433 29.5297L105.386 30.8839L99.0823 42.7615L107.132 32.0948L109.09 33.4515L101.813 44.6737L110.839 34.6647L112.793 36.019L104.369 46.8173L114.611 37.2797L116.551 38.6247L107.572 48.2675C107.655 48.2851 107.738 48.3035 107.821 48.3213L118.51 39.9829L120.425 41.3107L111.726 49.155C112.006 49.2149 112.286 49.2743 112.566 49.3343L122.607 42.8239L123.78 43.6366V44.6527L116.47 50.1688C117.039 50.2909 117.609 50.4135 118.179 50.5358L123.78 47.5631V50.2576L122.018 51.3602C122.605 51.4864 123.192 51.6127 123.78 51.7389C125.572 52.1243 127.366 52.5086 129.158 52.8937V40.4091L78.5438 5.81812ZM78.5438 43.7371L5.81805 59.2294V90.6435L78.5438 105.92L151.269 90.6435V59.2294L78.5438 43.7371ZM78.5438 48.0407L147.188 61.3886V88.4547L78.5438 101.617L9.89958 88.4547V61.3886L78.5438 48.0407ZM78.5438 49.5469L16.5136 61.225C16.5937 61.4463 16.6557 61.6738 16.699 61.9052C16.7466 62.162 16.7708 62.4225 16.7715 62.6837C16.7716 65.0791 14.8298 67.021 12.4344 67.0208C12.1637 67.02 11.8937 66.9939 11.6279 66.9428V74.9165L12.4344 74.9121V67.5408C15.1172 67.541 17.2922 65.366 17.292 62.6831C17.2908 62.3909 17.2631 62.0993 17.2094 61.812L78.5437 50.6218L139.878 61.8121C139.824 62.0994 139.797 62.391 139.796 62.6832C139.795 65.3661 141.97 67.5411 144.653 67.5409V74.9122L145.46 74.9166V66.9429C145.194 66.994 144.924 67.02 144.653 67.0209C142.258 67.021 140.316 65.0791 140.316 62.6838C140.317 62.4226 140.341 62.1621 140.388 61.9053C140.432 61.6739 140.494 61.4464 140.574 61.2251L78.5438 49.5469ZM145.46 74.9166L144.653 74.921V82.2924C141.97 82.2922 139.795 84.4671 139.796 87.15C139.797 87.4423 139.824 87.7338 139.878 88.0212L78.5438 99.2114L17.2094 88.0211C17.2631 87.7338 17.2908 87.4422 17.292 87.15C17.2922 84.4671 15.1173 82.2921 12.4344 82.2923V74.921L11.6279 74.9165L11.6279 82.8903C11.8937 82.8391 12.1637 82.8131 12.4344 82.8123C14.8298 82.8121 16.7716 84.754 16.7715 87.1494C16.7707 87.4105 16.7465 87.6711 16.699 87.9279C16.6558 88.1593 16.5938 88.3868 16.5136 88.6081L78.5438 100.286L140.574 88.6082C140.494 88.3869 140.432 88.1594 140.389 87.928C140.341 87.6712 140.317 87.4106 140.316 87.1495C140.316 84.7541 142.258 82.8122 144.653 82.8124C144.924 82.8132 145.194 82.8392 145.46 82.8904L145.46 74.9166ZM78.5562 57.0694C78.3777 57.1041 75.3725 57.6877 75.1939 57.7224C75.2725 58.1869 75.3641 58.7463 75.4456 59.231C75.5957 59.2386 75.7424 59.2611 75.857 59.3073C76.105 59.4074 75.9299 59.487 75.4916 59.5021C75.9493 62.2283 76.4442 65.2353 76.969 68.4779C77.0498 68.3992 77.1262 68.3485 77.177 68.3485C77.2738 68.3485 77.3531 68.528 77.3531 68.7475C77.3531 68.9191 77.2352 69.0624 77.0734 69.1184C77.1498 69.5919 77.2204 70.0156 77.2978 70.4976C77.4168 71.2391 77.4032 71.167 77.5121 71.8503C77.8293 71.7764 78.3925 71.7747 79.2061 71.8697C80.451 72.0151 80.5095 72.0781 79.8606 72.5703C78.9876 73.2325 78.9742 73.2321 77.791 72.5763C77.7159 72.5347 77.6689 72.498 77.6087 72.4594C78.0641 75.3269 78.5562 78.4462 78.5562 78.4462C78.5631 79.5612 78.5562 81.7542 78.5562 81.7542L77.258 81.6591C76.9128 83.8438 76.2123 88.0339 76.2123 88.0339C77.0006 88.1602 78.5562 88.3713 78.5562 88.3713C79.0853 88.3071 80.1217 88.1441 80.1217 88.1441C80.3637 89.5478 80.8222 92.2599 80.8222 92.2599C82.7246 91.9061 86.5073 91.1659 86.5073 91.1659C85.7586 87.01 84.9487 82.4025 84.0816 77.3185C83.7042 77.6717 83.3539 77.9223 83.2011 77.9223C82.9834 77.9223 82.8806 77.8774 82.972 77.8225C83.0476 77.7771 83.5049 77.4081 84.024 76.9802C83.6774 74.9455 83.3232 72.85 82.9572 70.649C82.8958 70.2798 82.8607 70.054 82.8006 69.6914C82.6175 69.6272 82.5396 69.4422 82.5396 69.1078C82.5396 68.9328 82.5729 68.7949 82.6362 68.6839C81.6289 62.5749 80.823 57.5099 80.823 57.5099L78.5562 57.0694ZM88.4039 58.9832C88.4109 59.0114 88.4039 59.0299 88.4039 59.0299C89.1609 61.3543 89.9606 63.7253 90.7806 66.1091C90.7937 66.1061 90.8083 66.1076 90.8211 66.103C91.4085 65.9143 91.4236 65.9464 90.9177 66.3103C90.8976 66.3254 90.8825 66.334 90.8632 66.3477C92.027 69.7247 93.2438 73.1323 94.5278 76.5289C94.5774 76.541 94.6247 76.5504 94.6868 76.5742C95.3779 76.8395 95.5045 77.1259 94.9307 77.1259C94.8709 77.1259 94.8048 77.108 94.7382 77.0814C94.9261 77.5756 95.1128 78.0703 95.3031 78.5635C97.5994 84.5135 99.4361 88.6777 99.4361 88.6777C101.18 88.3517 104.646 87.674 104.646 87.674C104.653 87.6696 104.646 87.6382 104.646 87.6382C102.586 83.2665 100.279 77.9325 97.7545 71.3643C96.8136 68.916 95.9932 66.6739 95.3008 64.7542C95.2055 65.0215 95.0786 65.2507 94.9314 65.3417C94.7782 65.4364 94.7301 64.9864 94.8247 64.342C94.8556 64.131 94.903 63.9554 94.9548 63.8004C94.1399 61.5237 93.6153 59.9955 93.6153 59.9955L88.4039 58.9832ZM74.2581 59.1671L74.2316 59.1731C73.594 63.1895 72.8805 67.5295 72.1394 71.9632C72.3713 72.0137 72.4765 72.1602 72.3661 72.3387C72.2499 72.5268 72.1052 72.6782 72.0124 72.7198C71.7499 74.285 71.4882 75.8455 71.216 77.4371C71.7419 77.5416 72.1667 77.6891 72.1667 77.7707C72.1667 77.8548 71.7178 77.9242 71.1693 77.9242C71.1569 77.9242 71.1465 77.9231 71.1342 77.9209C71.0637 78.332 70.9995 78.7256 70.9285 79.138C71.1727 79.1664 71.4463 79.3217 71.5682 79.519C71.8743 80.0144 71.7363 80.0144 70.9698 79.519C70.9299 79.4933 70.9085 79.472 70.8763 79.4481C69.7575 85.9331 68.8597 90.8402 68.8597 90.8402C70.7306 91.2097 74.4513 91.9109 74.4513 91.9109C74.5973 91.0209 74.7883 89.7893 74.95 88.7854C74.6867 88.9234 74.4913 88.9053 74.3773 88.7208C74.2328 88.4871 74.3809 88.2961 74.703 88.2961C74.8186 88.2961 74.9331 88.2596 75.042 88.2105C75.369 86.1742 75.6825 84.2488 76.037 81.9783C76.5639 78.6038 76.9845 75.8373 76.9845 75.8373C76.4862 72.6786 75.8988 69.0362 75.2827 65.3016C75.0756 64.0458 75.0702 64.0277 74.9095 63.0668C74.8424 63.1226 74.7129 63.1618 74.5604 63.1618C74.341 63.1618 74.1614 62.971 74.1614 62.7387C74.1614 62.5063 74.341 62.4277 74.5604 62.5633C74.6868 62.6414 74.7957 62.736 74.869 62.822C74.6178 61.3216 74.2581 59.1671 74.2581 59.1671ZM62.4499 60.4458C61.6432 60.4352 60.7318 60.5353 59.7101 60.7341L58.0862 61.0497C58.0927 63.1982 58.0854 67.4673 58.0854 67.4673C58.6615 67.4166 59.7927 67.2881 59.7927 67.2881C61.362 67.123 61.8291 68.0621 61.8288 70.1992C61.8284 72.5457 61.1961 73.4216 59.7919 73.4517C59.2296 73.4739 58.0839 73.489 58.0839 73.489C58.0904 75.5066 58.0831 79.51 58.0831 79.51C58.3836 79.5387 58.9628 79.5646 58.9628 79.5646C61.5512 79.7261 61.7992 80.6868 61.8264 83.244C61.8362 83.9301 61.8496 84.6316 61.8631 85.3354C62.2733 84.9087 62.6893 84.7681 63.0934 84.9232C64.0669 85.2968 63.9647 85.6261 62.6298 86.4146C62.331 86.5911 62.1036 86.7221 61.8997 86.8214C61.9226 87.6684 61.9466 88.5231 61.9909 89.526C63.8985 89.9016 67.6908 90.6169 67.6908 90.6169C67.6977 90.525 67.6908 90.3037 67.6908 90.3037C67.4707 87.7019 67.4158 86.6295 67.3612 81.5656C67.3339 78.1932 66.867 75.6368 64.4992 74.9906C64.5061 74.9724 64.4992 74.9049 64.4992 74.9049C66.4817 74.0821 67.4722 72.0158 67.4726 67.5561C67.4727 66.3804 67.3844 65.3706 67.2077 64.5055C67.1606 64.5415 67.1333 64.5693 67.0807 64.6076C65.138 66.0221 64.9854 66.0609 64.9854 65.1375C64.9854 64.5332 65.1654 64.3426 65.5838 64.5032C65.9909 64.6594 66.1823 64.4818 66.1823 63.9476C66.1823 63.4404 66.4277 63.1752 66.822 63.1801C66.0722 61.3176 64.6521 60.4731 62.4499 60.4458ZM99.133 61.0684C99.1369 63.245 99.1342 65.2008 99.1322 67.5772C99.229 67.7056 99.2958 67.8508 99.2958 67.973C99.2958 68.0953 99.2292 68.1997 99.1322 68.2683C99.1314 69.3683 99.1314 71.6618 99.1314 71.6618C100.163 74.2916 101.307 77.1032 102.563 80.008C103.705 82.6495 104.619 84.6155 104.619 84.6155C104.635 84.621 104.647 84.61 104.647 84.61C104.655 77.9768 104.653 67.4473 104.653 64.6893C104.617 64.7753 104.551 64.8747 104.45 64.9956C104.066 65.4583 103.861 65.4708 103.357 65.0618C102.829 64.6331 102.779 64.6689 103.016 65.301C103.222 65.8502 103.144 65.9855 102.717 65.8215C102.378 65.6917 102.064 65.8802 101.96 66.2758C101.856 66.6709 101.763 66.5021 101.735 65.869C101.682 64.6159 102.865 63.7724 104.119 64.1703C104.421 64.2662 104.591 64.3543 104.653 64.4665C104.653 64.1702 104.654 62.1405 104.654 62.1405L100.009 61.2376C100.07 61.4877 100.046 61.7455 99.9355 61.8563C99.803 61.9889 99.7086 61.7533 99.7259 61.3327C99.7283 61.2712 99.7357 61.2339 99.7407 61.1854L99.133 61.0684ZM56.986 61.2647C56.9596 61.2692 51.6436 62.303 51.6172 62.3081C51.6212 69.8558 51.612 82.0383 51.6102 84.9217C51.6318 84.914 51.6474 84.9107 51.6694 84.9038C52.3613 84.6873 52.5942 84.8636 52.9426 85.863C53.3167 86.936 53.2615 87.1624 52.4946 87.7027C52.4914 87.7038 52.4906 87.706 52.4875 87.7082C53.2441 87.8543 53.5499 87.9119 54.3054 88.0557C54.163 87.9578 54.3529 87.9431 54.9117 87.9256C55.4054 87.9102 55.8093 88.0771 55.8093 88.2965C55.8093 88.3149 55.8053 88.3249 55.8046 88.3425C56.0907 88.3966 56.9797 88.5677 56.9797 88.5677C56.9809 87.4535 56.9797 86.5601 56.9804 85.2225C56.7042 84.8567 56.722 84.4578 56.9804 83.9586C56.985 74.4893 56.986 61.2647 56.986 61.2647ZM91.4351 62.3276C91.7826 62.346 92.1653 62.5431 92.5135 62.9626C92.8222 63.3346 92.8507 63.5611 92.5891 63.5611C92.3576 63.5611 92.0544 63.9201 91.9151 64.359C91.5832 65.4049 90.6708 65.3814 90.3933 64.3199C90.0766 63.1091 90.6706 62.287 91.4351 62.3276ZM80.0352 62.3844C80.2259 62.3844 80.5531 62.5106 80.9437 62.7631C81.4595 63.0964 81.4487 63.1506 80.8674 63.1558C80.4963 63.1588 80.082 62.9825 79.9464 62.7631C79.7903 62.5107 79.8445 62.3844 80.0352 62.3844ZM104.107 62.7631C104.339 62.7631 104.418 62.9427 104.283 63.1621C104.147 63.3815 103.957 63.561 103.86 63.561C103.764 63.561 103.684 63.3815 103.684 63.1621C103.684 62.9427 103.874 62.7631 104.107 62.7631ZM63.067 62.8028C63.6575 62.7809 64.2514 62.9426 64.387 63.162C64.6673 63.6155 64.4069 63.6155 62.9906 63.162L61.9932 62.8425L63.067 62.8028ZM88.4032 62.8036C88.4035 63.3654 88.4029 63.8637 88.4032 64.4867C88.4898 64.5735 88.5782 64.6525 88.6627 64.7438C88.8881 64.9874 89.0965 65.194 89.2923 65.3727C88.7977 63.905 88.432 62.8075 88.432 62.8075L88.4032 62.8036ZM108.321 62.8527C108.321 63.9409 108.32 64.7913 108.32 66.113C108.415 66.1054 108.472 66.1523 108.472 66.2618C108.472 66.363 108.411 66.4765 108.319 66.5828C108.319 70.7655 108.318 72.806 108.316 76.7173C108.409 76.8069 108.472 76.8937 108.472 76.9495C108.472 77.0052 108.409 77.0527 108.316 77.0851C108.314 80.8241 108.312 86.9679 108.312 86.9679C110.149 86.6228 113.802 85.9112 113.802 85.9112C113.81 80.4203 113.808 73.8937 113.808 69.423C113.721 69.4185 113.662 69.3691 113.664 69.2695C113.667 69.1714 113.724 68.9998 113.809 68.8114C113.809 67.9713 113.809 65.7054 113.809 65.4132C113.452 65.6566 113.12 65.9001 112.892 66.1005L111.927 66.9522L112.693 65.8675C113.058 65.3504 113.524 64.9117 113.81 64.7992C113.81 64.7637 113.81 64.1239 113.81 64.1158C113.504 64.2167 113.259 64.1491 113.259 63.9475C113.259 63.9026 113.274 63.8599 113.296 63.8198L110.845 63.3437C111.349 64.5603 111.048 65.1569 109.908 65.1569C109.067 65.1569 108.945 64.9989 109.069 64.0598C109.106 63.781 109.142 63.4014 109.173 63.0188L108.321 62.8527ZM43.8609 64.0488C43.0156 64.0594 42.0231 64.1744 40.8617 64.4003L39.2931 64.7049C39.2987 66.0698 39.2927 68.3298 39.2915 68.7818C39.601 68.8364 39.8218 68.966 39.8447 69.1207C40.3567 69.0644 40.9964 68.9938 40.9964 68.9938C42.5381 68.824 42.9794 69.422 42.9787 70.8709C42.9779 72.2894 42.4538 72.9557 40.9395 73.0114C40.396 73.039 39.2891 73.0722 39.2891 73.0722C39.2948 74.1689 39.2879 75.9188 39.2867 76.3418C39.3096 76.3178 39.318 76.3052 39.3452 76.2779C39.6158 76.0052 39.9377 75.8831 40.0605 76.006C40.1833 76.1288 39.9623 76.3517 39.5688 76.5015C39.4472 76.5478 39.3614 76.5751 39.2867 76.5966C39.2867 76.6021 39.2867 76.7283 39.2867 76.7283C39.8902 76.755 41.0758 76.7859 41.0758 76.7859C42.7553 76.8399 43.2512 77.5352 43.2506 78.9295C43.2498 80.5106 42.6983 80.9165 41.2114 80.7614C40.5759 80.7028 39.2852 80.5604 39.2852 80.5604C39.2868 81.0068 39.2844 81.3027 39.2844 81.8921C39.3563 81.7905 39.4359 81.6892 39.5259 81.5991C39.891 81.234 40.1634 81.2737 40.7158 81.7736C41.2779 82.2823 41.5545 82.3205 42.0023 81.949C42.3426 81.6665 42.666 81.6269 42.8049 81.8516C42.9329 82.0586 42.7548 82.3368 42.409 82.4695C41.6641 82.7553 39.9145 82.7717 39.2844 82.5676C39.2832 83.6384 39.2832 84.9344 39.2827 85.0354C39.3813 84.6895 39.4518 84.2919 39.4518 84.0412C39.4518 83.7117 39.6762 83.5245 39.9505 83.625C40.2248 83.7256 40.4043 84.0101 40.3495 84.257C40.2946 84.5038 40.6088 84.7058 41.0476 84.7058C41.8581 84.7058 42.0319 85.04 41.5541 85.6152C41.6333 85.6302 41.9812 85.6971 41.9812 85.6971C42.7679 85.8477 43.4729 85.9216 44.1139 85.9308C44.1606 85.9139 44.2099 85.9028 44.2627 85.9028C44.3218 85.9028 44.3709 85.9149 44.4092 85.9356C45.844 85.9052 46.8983 85.4843 47.6086 84.6358C47.5014 84.5502 47.4232 84.3936 47.4185 84.2073C47.4117 83.933 47.0038 82.8883 46.5123 81.886L45.6185 80.0642L46.5068 80.2333C47.2108 80.3678 47.4495 80.7667 47.6577 82.1556C47.7737 82.9287 47.9666 83.5812 48.1315 83.8122C48.555 82.9192 48.7567 81.735 48.7572 80.2372C48.7584 77.1863 48.1528 75.1425 45.7853 74.4749C45.7922 74.4613 45.7853 74.4087 45.7853 74.4087C47.4376 73.6036 48.4297 72.003 48.4307 69.1015C48.4319 65.8972 47.5237 64.0009 43.8609 64.0488ZM114.932 64.1377C114.932 64.1625 114.932 64.1862 114.932 64.2117C114.955 64.191 114.98 64.172 115.002 64.1509L114.932 64.1377ZM115.691 64.2904C115.561 64.3722 115.421 64.4559 115.254 64.5405C115.154 64.5913 115.04 64.6589 114.932 64.7189C114.935 66.519 114.931 69.2501 114.931 69.2501C115.171 69.2825 115.63 69.3217 115.63 69.3217C117.646 69.5284 118.152 70.5568 118.318 71.9406C118.402 72.5529 118.457 73.939 118.457 74.9188C118.456 75.8986 118.4 77.2872 118.316 77.8993C118.149 79.2828 117.641 80.3105 115.626 80.5136C115.399 80.544 114.925 80.5845 114.925 80.5845C114.932 82.2952 114.924 85.6961 114.924 85.6961C115.061 85.6775 115.314 85.6206 115.314 85.6206C116.01 85.4867 116.651 85.3406 117.243 85.1804C117.031 84.9463 116.818 84.5714 116.603 84.0552C116.114 82.8848 116.088 82.3875 116.472 81.4619C117.043 80.0818 117.3 80.053 118.633 81.2149C119.598 82.057 119.631 82.1991 119.154 83.5089C118.964 84.0301 118.777 84.4407 118.593 84.7541C119.716 84.3498 120.621 83.8701 121.345 83.2923C121.194 83.0848 121.217 83.0682 121.428 83.2222C122.655 82.2111 123.365 80.9102 123.775 79.2006C124.084 77.9293 124.197 76.568 124.199 74.9243C124.2 73.2806 124.089 71.9222 123.782 70.6503C122.951 67.1694 120.888 65.3637 115.691 64.2904ZM78.5266 64.359C78.759 64.359 78.949 64.5385 78.9489 64.7579C78.9489 64.9774 78.8696 65.1569 78.7729 65.1569C78.6761 65.1569 78.4862 64.9774 78.3505 64.7579C78.2149 64.5385 78.2943 64.359 78.5266 64.359ZM38.1905 64.9192C39.1711 64.7285 31.9246 66.1377 32.9051 65.947V65.9485C32.908 71.9599 32.8926 83.9578 32.8926 83.9578C34.6622 84.3029 38.1804 84.97 38.1804 84.97C38.1873 80.545 38.1867 76.1491 38.1874 71.6836C37.8844 71.7412 37.4839 71.7863 36.996 71.8012C35.578 71.8446 35.1047 71.7374 35.4017 71.4404C35.7904 71.0518 37.3309 70.967 38.1874 71.1895C38.1875 70.2387 38.189 68.7833 38.189 68.2114C38.0649 68.2938 37.927 68.3486 37.8088 68.3486C37.5894 68.3486 37.5212 68.169 37.6568 67.9496C37.7705 67.7658 37.9909 67.6167 38.189 67.5709C38.1891 67.3054 38.1898 66.0053 38.1898 65.9003C37.9452 65.8617 37.9284 65.7829 38.1805 65.6821C38.1837 65.6809 38.1873 65.6805 38.1906 65.6791L38.1905 64.9192ZM88.4032 65.0026C88.4036 66.5364 88.4024 67.2948 88.4024 69.0405C88.6022 68.9724 88.9445 69.0701 89.2377 69.3873C89.6602 69.8444 89.6464 69.9444 89.1613 69.9444C88.8729 69.9444 88.5596 69.8099 88.4024 69.6374C88.4024 70.0334 88.4024 70.1442 88.4024 70.5444C88.5694 70.5723 88.7523 70.624 88.9548 70.7049C89.8619 71.0674 89.8375 71.0918 88.5442 71.1156C88.4873 71.1168 88.4546 71.1126 88.4024 71.1126C88.4023 72.163 88.4025 72.435 88.4024 73.483C88.6948 73.5582 88.9229 73.6649 88.9229 73.7767C88.9229 73.8332 88.7073 73.8627 88.4024 73.8624C88.4023 74.5892 88.4025 74.803 88.4024 75.512C88.4117 75.5164 88.4146 75.5175 88.4242 75.523C88.9179 75.7622 89.3219 76.0412 89.3219 76.1432C89.3219 76.4331 89.1182 76.3513 88.4024 75.7856C88.4016 80.4614 88.4016 84.8358 88.4007 86.7265C88.698 86.7696 88.9228 86.9167 88.9228 87.1006C88.9228 87.5113 88.8636 87.5539 88.4007 87.2712C88.4005 87.8086 88.4007 90.8026 88.4007 90.8026C90.2475 90.4584 93.9191 89.7405 93.9191 89.7405C93.9242 87.1334 93.9211 84.3894 93.9199 81.9001C93.8691 81.9089 93.8073 81.9136 93.7337 81.9136C93.5272 81.9136 93.249 81.7362 93.115 81.5193C92.9752 81.2931 93.1347 81.2257 93.4898 81.3619C93.6764 81.4335 93.8183 81.5068 93.9199 81.5754C93.9195 80.6275 93.9199 78.3767 93.9199 78.3767C93.0873 76.1711 92.1572 73.6068 91.1708 70.8098C91.1544 70.7887 91.1339 70.7695 91.1202 70.7475C91.0681 70.663 91.0577 70.6006 91.0836 70.5628C90.8835 69.9942 90.6992 69.4918 90.4929 68.8968C90.1714 67.9699 89.9434 67.2872 89.6732 66.4914C89.4205 66.2844 89.1162 65.9068 88.6641 65.314C88.5838 65.2088 88.491 65.1066 88.4032 65.0026ZM42.3212 65.1849C42.6922 65.1696 43.1066 65.3364 43.2422 65.5559C43.5257 66.0146 43.5119 66.0146 42.4443 65.5559C41.7938 65.2763 41.7712 65.2078 42.3212 65.1849ZM58.7049 65.3104C58.8102 65.2906 58.9262 65.3104 59.0283 65.3736C59.5503 65.6962 59.4914 65.8216 58.8187 65.8216C58.4992 65.8216 58.3326 65.6691 58.4478 65.4827C58.5054 65.3895 58.5997 65.3302 58.7049 65.3104ZM33.4677 65.9548C33.485 65.9311 33.6387 66.045 33.9407 66.2813C34.412 66.6501 34.8316 66.6911 35.3425 66.4176C35.8588 66.1413 36.2968 66.1912 36.8409 66.589C37.5485 67.1064 37.4802 67.1516 35.9861 67.1516C34.9148 67.1516 34.1774 66.9143 33.816 66.4535C33.5702 66.14 33.4505 65.9785 33.4677 65.9548ZM121.062 67.5647C121.295 67.5571 121.833 67.8137 122.259 68.1358C123.244 68.8809 122.93 68.8878 121.637 68.1494C121.089 67.8358 120.83 67.5724 121.062 67.5647ZM82.3066 67.7314C82.399 67.7501 82.4156 67.827 82.337 67.9543C82.1027 68.3334 81.3427 68.5143 81.3427 68.1912C81.3427 68.1049 81.6216 67.9276 81.9622 67.7969C82.0509 67.7628 82.127 67.7415 82.1897 67.7322C82.2368 67.7246 82.2758 67.7246 82.3066 67.7314ZM95.5392 67.7314C95.5701 67.7254 95.609 67.7254 95.6561 67.7322C95.7189 67.7412 95.7949 67.7628 95.8836 67.7969C96.5748 68.0621 96.7014 68.3486 96.1275 68.3486C95.921 68.3486 95.6429 68.1712 95.5088 67.9543C95.4302 67.8271 95.4467 67.7502 95.5392 67.7314ZM79.7134 67.9987C79.852 68.0047 79.9712 68.0408 80.0375 68.107C80.1701 68.2395 79.9345 68.3339 79.5139 68.3166C79.0491 68.2974 78.9549 68.2032 79.2731 68.0758C79.4171 68.0182 79.5748 67.9931 79.7134 67.9987ZM74.4373 68.7873C74.9181 68.7654 75.4222 68.927 75.5578 69.1465C75.6935 69.3659 75.7487 69.5276 75.6809 69.5057C75.6131 69.4838 75.109 69.3222 74.5604 69.1465C73.632 68.8491 73.6236 68.8243 74.4373 68.7873ZM92.6483 68.8994C92.7562 68.9024 92.7677 69.0586 92.6655 69.3249C92.4003 70.0161 92.1146 70.1427 92.1146 69.5688C92.1146 69.3623 92.292 69.0834 92.5089 68.9493C92.5654 68.9143 92.6124 68.8985 92.6483 68.8994ZM78.6871 70.009C78.934 70.0335 79.2526 70.187 79.7508 70.4813C80.4099 70.8706 80.9437 70.9978 80.9437 70.7649C80.9437 70.5331 81.1233 70.3433 81.3427 70.3433C81.941 70.3433 81.8231 71.0246 81.1822 71.2706C80.8744 71.3887 80.3047 71.2528 79.9167 70.969C79.5288 70.6853 78.8378 70.5427 78.3817 70.6519C77.7005 70.815 77.6423 70.7547 78.0552 70.3137C78.265 70.0895 78.4402 69.9846 78.6871 70.009ZM136.259 70.2335C135.849 70.2335 135.475 70.3585 135.138 70.6075C134.812 70.851 134.577 71.165 134.435 71.5496L136.92 73.1727C136.777 73.3429 136.624 73.4721 136.459 73.5599C136.263 73.6589 136.055 73.708 135.836 73.708C135.647 73.708 135.46 73.6665 135.273 73.5841C135.086 73.4997 134.935 73.3899 134.822 73.2544L134.413 73.6199C134.453 73.6694 134.498 73.7167 134.548 73.7626C134.597 73.8084 134.646 73.8517 134.696 73.8919C134.745 73.9304 134.795 73.9641 134.844 73.9933C134.896 74.0226 134.955 74.0533 135.023 74.0846C135.279 74.2073 135.55 74.2684 135.836 74.2684C136.246 74.2684 136.612 74.1501 136.934 73.9139C137.258 73.6759 137.496 73.3595 137.648 72.9641L135.174 71.3409L135.281 71.217C135.295 71.1988 135.313 71.1806 135.333 71.1624C135.355 71.1441 135.376 71.1271 135.396 71.1125C135.471 71.0466 135.553 70.9908 135.643 70.945C135.833 70.8443 136.039 70.7938 136.259 70.7938C136.35 70.7938 136.443 70.8059 136.536 70.8273C136.631 70.8493 136.727 70.8809 136.824 70.9232C137.022 71.0075 137.175 71.1142 137.283 71.2442L137.682 70.8795C137.509 70.68 137.297 70.5219 137.044 70.4066C136.909 70.3461 136.776 70.3024 136.648 70.2749C136.522 70.2475 136.392 70.2335 136.259 70.2335ZM130.972 70.2583V71.9391H130.568V72.4994H130.972V74.1801H134.067V73.1999H133.528V73.6199H131.51V72.4994H132.587V71.9391H131.51V70.8186H133.528V71.2386H134.067V70.2583H130.972ZM138.029 70.2583V71.2386H138.567V70.8186H139.375V74.1801H139.913V70.8186H140.72V71.2386H141.259V70.2583H138.029ZM96.1041 70.3432C96.1247 70.3227 96.2865 70.4426 96.6029 70.6908C96.9868 70.9919 97.301 71.3061 97.301 71.3889C97.301 71.7173 96.9737 71.5065 96.4525 70.8419C96.2043 70.5255 96.0836 70.3638 96.1041 70.3432ZM15.2621 70.8996V71.9024H15.8123V71.4723H16.6374V74.9094H17.1884V71.4723H18.0135V71.9024H18.5644V70.8996H15.2621ZM19.0842 70.8996V72.6185H18.6712V73.1913H19.0842V74.9094H19.6343V73.1913H20.4634L21.3135 74.9094H21.9735L21.1483 73.1913C21.4516 73.1913 21.7107 73.078 21.926 72.8515C22.1413 72.6231 22.2486 72.3539 22.2486 72.045C22.2486 71.7324 22.1396 71.464 21.9205 71.2393C21.7015 71.0128 21.4441 70.8996 21.1483 70.8996H19.0842ZM22.6732 70.8996V74.9094H24.0517C24.5946 74.9094 25.0504 74.7139 25.4192 74.3227C25.7899 73.9296 25.9756 73.458 25.9756 72.9076C25.9756 72.3516 25.7882 71.8776 25.4137 71.4863C25.0394 71.0951 24.5865 70.8996 24.0548 70.8996H22.6732ZM19.6343 71.4723H21.1483C21.2925 71.4723 21.4197 71.5282 21.5301 71.6406C21.6425 71.753 21.6985 71.8878 21.6985 72.045C21.6985 72.1948 21.6442 72.3279 21.5356 72.444C21.4289 72.5601 21.3 72.6185 21.1483 72.6185H19.6343V71.4723ZM23.2234 71.4723H24.0548C24.4348 71.4723 24.7588 71.613 25.0265 71.8939C25.2961 72.1747 25.4309 72.5114 25.4309 72.9045C25.4309 73.2995 25.2961 73.6375 25.0265 73.9183C24.7588 74.1972 24.4348 74.3367 24.0548 74.3367H23.2234V71.4723ZM64.6706 71.9687C64.7223 71.9702 64.7654 71.9856 64.7961 72.0162C64.9189 72.1391 64.6978 72.3619 64.3044 72.5118C63.7358 72.7283 63.6896 72.6821 64.0807 72.2881C64.2837 72.0836 64.5156 71.9641 64.6706 71.9687ZM35.016 72.338C35.2354 72.338 35.5264 72.5175 35.662 72.737C35.7976 72.9564 35.7287 73.1359 35.5093 73.1359C35.2898 73.1359 34.9997 72.9564 34.8641 72.737C34.7285 72.5175 34.7966 72.338 35.016 72.338ZM111.755 72.3808C111.813 72.3899 111.905 72.501 112.042 72.7175C112.6 73.5995 111.848 74.3839 111.131 73.6673C110.714 73.2497 110.821 72.6622 111.265 72.9364C111.484 73.072 111.666 72.9485 111.67 72.6606C111.672 72.4655 111.696 72.3719 111.755 72.3808ZM90.7517 72.5188C90.7826 72.5128 90.8215 72.5128 90.8686 72.5196C90.9314 72.5286 91.0074 72.5502 91.0961 72.5843C91.7873 72.8495 91.9139 73.136 91.34 73.136C91.1335 73.136 90.8554 72.9586 90.7213 72.7417C90.6427 72.6144 90.6592 72.5376 90.7517 72.5188ZM83.1918 72.871C83.2805 72.8894 83.3375 72.965 83.3375 73.0884C83.3375 73.3079 83.1579 73.5988 82.9385 73.7344C82.7191 73.8699 82.5396 73.801 82.5396 73.5817C82.5396 73.3623 82.7191 73.0721 82.9385 72.9365C82.9934 72.9025 83.0459 72.881 83.0936 72.8718C83.1293 72.8642 83.1622 72.8642 83.1918 72.871ZM123.599 73.185C123.737 73.1911 123.857 73.2271 123.923 73.2933C124.055 73.4259 123.82 73.5202 123.399 73.5029C122.935 73.4838 122.84 73.3895 123.159 73.2622C123.303 73.2046 123.46 73.1795 123.599 73.185ZM63.2072 73.2989C63.4936 73.2788 63.6949 73.3635 63.5672 73.5701C63.4435 73.7702 63.0535 73.934 62.7008 73.934C62.348 73.934 62.1842 73.8092 62.3369 73.6566C62.5493 73.4441 62.9209 73.319 63.2072 73.2989ZM113.06 73.934C113.389 73.934 113.658 74.1135 113.658 74.3329C113.658 74.5523 113.389 74.7319 113.06 74.7319C112.731 74.7319 112.461 74.5523 112.461 74.3329C112.461 74.1135 112.731 73.934 113.06 73.934ZM43.0427 74.3843C43.2235 74.3843 43.4043 74.4124 43.5414 74.4677C43.8157 74.5783 43.5913 74.6687 43.0427 74.6687C42.4941 74.6687 42.2697 74.5783 42.544 74.4677C42.6812 74.4124 42.8619 74.3843 43.0427 74.3843ZM80.9437 74.3843C81.1245 74.3843 81.3053 74.4124 81.4424 74.4677C81.7167 74.5783 81.4923 74.6687 80.9437 74.6687C80.3952 74.6687 80.1708 74.5783 80.445 74.4677C80.5822 74.4124 80.763 74.3843 80.9437 74.3843ZM110.068 74.3843C110.248 74.3843 110.429 74.4124 110.566 74.4677C110.841 74.5783 110.616 74.6687 110.068 74.6687C109.519 74.6687 109.295 74.5783 109.569 74.4677C109.706 74.4124 109.887 74.3843 110.068 74.3843ZM82.3845 74.869C82.4322 74.8767 82.4847 74.8975 82.5396 74.9312C82.759 75.0668 82.9385 75.2568 82.9385 75.3536C82.9385 75.4504 82.759 75.5297 82.5396 75.5297C82.3202 75.5297 82.1406 75.3397 82.1406 75.1073C82.1406 74.9331 82.2414 74.8449 82.3845 74.869ZM108.999 75.2119C109.082 75.2229 109.2 75.3 109.343 75.4433C109.603 75.7029 109.722 76.0078 109.609 76.1212C109.495 76.2346 109.283 76.2074 109.137 76.0612C108.99 75.9149 108.871 75.61 108.871 75.3833C108.871 75.2583 108.917 75.2014 108.999 75.2119ZM76.0105 75.2647C76.0992 75.2833 76.1562 75.3586 76.1562 75.4821C76.1562 75.7016 75.9767 75.9925 75.7573 76.1281C75.5379 76.2637 75.3583 76.1947 75.3583 75.9754C75.3583 75.756 75.5379 75.4658 75.7573 75.3302C75.8122 75.2962 75.8647 75.2747 75.9123 75.2656C75.9481 75.2579 75.981 75.2579 76.0105 75.2647ZM133.874 75.2811C133.484 75.2811 133.148 75.4205 132.865 75.6988C132.723 75.8361 132.617 75.9911 132.548 76.1632C132.479 76.3335 132.444 76.5202 132.444 76.7234C132.444 77.0439 132.539 77.3231 132.727 77.5611C132.887 77.7534 133.089 77.9017 133.335 78.006C133.439 78.0499 133.535 78.0831 133.623 78.105C133.712 78.127 133.811 78.1378 133.92 78.1378L133.347 79.2583H133.963L135.286 76.6354C135.286 76.2674 135.146 75.9498 134.863 75.6824C134.719 75.5469 134.565 75.446 134.402 75.3801C134.238 75.3142 134.063 75.2811 133.874 75.2811ZM129.852 75.3364V75.8967H130.417V79.2582H130.982V75.3364H129.852ZM137.034 75.3364L135.709 77.9593C135.709 78.3273 135.849 78.6449 136.129 78.9122C136.412 79.1796 136.742 79.3128 137.12 79.3128C137.512 79.3128 137.849 79.173 138.13 78.8928C138.412 78.6108 138.553 78.2704 138.553 77.8712C138.553 77.5508 138.459 77.2716 138.271 77.0336C138.111 76.8413 137.909 76.693 137.663 76.5886C137.553 76.541 137.453 76.5067 137.363 76.4866C137.273 76.4664 137.178 76.457 137.078 76.457L137.651 75.3365L137.034 75.3364ZM139.866 75.3364L139.316 76.9619L139.652 77.2969C139.721 77.2255 139.785 77.1697 139.842 77.1294C140.013 77.0177 140.197 76.9619 140.393 76.9619C140.608 76.9619 140.805 77.0404 140.981 77.198C141.177 77.3737 141.275 77.5935 141.275 77.8572C141.275 78.1208 141.174 78.3424 140.972 78.5219C140.793 78.6757 140.601 78.7525 140.393 78.7525C140.186 78.7525 139.992 78.6859 139.811 78.5522C139.586 78.3765 139.474 78.1441 139.474 77.8549H138.952C138.952 78.3053 139.104 78.6667 139.407 78.9395C139.682 79.1885 140.011 79.3128 140.393 79.3128C140.785 79.3128 141.122 79.173 141.402 78.8928C141.685 78.6108 141.825 78.2704 141.825 77.8712C141.825 77.5471 141.739 77.2679 141.566 77.0336C141.416 76.8376 141.224 76.6893 140.99 76.5886C140.884 76.541 140.785 76.5067 140.693 76.4866C140.603 76.4664 140.503 76.457 140.393 76.457C140.336 76.457 140.273 76.4625 140.205 76.4734L140.039 76.5039L140.249 75.8415H141.523V75.3366L139.866 75.3364ZM15.3291 75.4136V79.4235H15.8793V76.8458L17.2554 78.2772L18.6315 76.8458V79.4235H19.1816V75.4136L17.2554 77.4185L15.3291 75.4136ZM20.0372 75.4136V77.1318H19.625V77.7045H20.0372V79.4235H20.5881V77.7045H21.4164L22.2673 79.4235H22.9273L22.1013 77.7045C22.4046 77.7045 22.6637 77.5913 22.879 77.3648C23.0942 77.1364 23.2023 76.868 23.2023 76.5591C23.2023 76.2464 23.0925 75.978 22.8735 75.7533C22.6545 75.5268 22.3971 75.4136 22.1013 75.4136H20.0372ZM23.9044 75.4136V77.1318H23.4914V77.7045H23.9044V79.4235H24.4545V77.7045H24.8675L26.2997 79.4235H27.0127L25.3615 77.4185L27.0127 75.4136H26.2997L24.8675 77.1318H24.4545V75.4136H23.9044ZM72.4324 75.6084C72.6073 75.5853 72.8668 75.6812 73.0916 75.8679C73.3914 76.1167 73.7288 76.228 73.842 76.1149C73.9551 76.0018 74.2751 76.1824 74.5526 76.517C75.0532 77.1201 74.9473 77.3792 74.417 76.8489C74.2651 76.697 73.7525 76.5139 73.2778 76.4414C72.2644 76.2868 71.9331 76.029 72.2898 75.6723C72.325 75.637 72.374 75.6161 72.4324 75.6084ZM133.874 75.8414C134.064 75.8414 134.242 75.9075 134.407 76.0393C134.574 76.1711 134.681 76.3302 134.728 76.517L134.194 77.5775L134.093 77.6047C134.059 77.6135 134.037 77.6198 134.027 77.6211C134.017 77.6222 133.999 77.6255 133.972 77.6299C133.947 77.631 133.927 77.6332 133.912 77.6332H133.874C133.659 77.6332 133.464 77.5547 133.289 77.3971C133.093 77.2213 132.995 77.0016 132.995 76.7379C132.995 76.4742 133.096 76.2527 133.298 76.0732C133.476 75.9194 133.669 75.8426 133.874 75.8426L133.874 75.8414ZM65.5839 75.9287C65.9389 75.9287 66.1185 76.1082 65.9828 76.3277C65.8472 76.5471 65.6677 76.7266 65.5839 76.7266C65.5001 76.7266 65.3205 76.5471 65.1849 76.3277C65.0493 76.1082 65.2288 75.9287 65.5839 75.9287ZM37.8228 75.9778C37.9614 75.9833 38.0806 76.02 38.1469 76.0861C38.2795 76.2187 38.0439 76.3131 37.6233 76.2958C37.1585 76.2766 37.0642 76.1824 37.3825 76.055C37.5265 75.9974 37.6842 75.9722 37.8228 75.9778ZM20.5881 75.9866H22.1013C22.2454 75.9866 22.3727 76.0426 22.4831 76.155C22.5954 76.2673 22.6514 76.4021 22.6514 76.5594C22.6514 76.7091 22.5972 76.8422 22.4886 76.9583C22.3819 77.0744 22.2529 77.1321 22.1013 77.1321H20.5881V75.9866ZM60.1644 76.377C60.303 76.3825 60.4223 76.4191 60.4886 76.4853C60.6211 76.6179 60.3855 76.7123 59.9649 76.6949C59.5002 76.6758 59.4059 76.5816 59.7242 76.4542C59.8682 76.3966 60.0258 76.3714 60.1644 76.377ZM137.12 76.9622C137.338 76.9622 137.534 77.0409 137.709 77.1983C137.905 77.3741 138.003 77.5939 138.003 77.8575C138.003 78.1212 137.902 78.3428 137.7 78.5222C137.527 78.676 137.334 78.7529 137.12 78.7529C136.93 78.7529 136.753 78.6876 136.587 78.5557C136.422 78.4239 136.316 78.264 136.27 78.0773L136.803 77.0175L136.905 76.9895C136.98 76.9713 137.051 76.9622 137.12 76.9622ZM36.5043 77.263C36.552 77.2707 36.6045 77.2915 36.6594 77.3252C36.8788 77.4608 37.0583 77.6508 37.0583 77.7476C37.0583 77.8443 36.8788 77.9237 36.6594 77.9237C36.44 77.9237 36.2604 77.7337 36.2604 77.5013C36.2604 77.3271 36.3613 77.239 36.5043 77.263ZM44.605 77.5739C44.7436 77.5794 44.8629 77.616 44.9292 77.6822C45.0618 77.8147 44.8262 77.9091 44.4056 77.8918C43.9408 77.8727 43.8465 77.7784 44.1648 77.651C44.3088 77.5934 44.4664 77.5683 44.605 77.5739ZM110.091 78.3227C110.323 78.3227 110.403 78.5023 110.267 78.7217C110.132 78.9411 109.942 79.1207 109.845 79.1207C109.748 79.1207 109.669 78.9411 109.669 78.7217C109.669 78.5023 109.859 78.3227 110.091 78.3227ZM96.3371 79.3014C96.368 79.2959 96.407 79.2959 96.454 79.3022C96.5168 79.311 96.5928 79.3328 96.6816 79.3669C97.3727 79.6321 97.4993 79.9186 96.9254 79.9186C96.7189 79.9186 96.4408 79.7412 96.3067 79.5243C96.2281 79.397 96.2447 79.3202 96.3371 79.3014ZM72.9311 79.9677C73.0697 79.9732 73.1889 80.0098 73.2552 80.0759C73.3878 80.2085 73.1522 80.3029 72.7316 80.2856C72.2668 80.2664 72.1726 80.1722 72.4908 80.0448C72.6348 79.9872 72.7925 79.962 72.9311 79.9677ZM54.4364 83.5092C54.7785 83.5092 54.9476 83.6887 54.812 83.9082C54.6764 84.1276 54.3967 84.3071 54.1902 84.3071C53.9837 84.3071 53.8146 84.1276 53.8146 83.9082C53.8146 83.6887 54.0943 83.5092 54.4364 83.5092ZM65.4007 84.3632C65.5437 84.3742 65.6916 84.4546 65.8425 84.6055C66.1878 84.9508 66.0905 85.0482 65.4483 84.9998C64.8867 84.9576 64.7304 84.8013 64.9901 84.5417C65.1199 84.4118 65.2578 84.3524 65.4007 84.3632ZM79.1819 85.5499C79.237 85.5544 79.3075 85.5704 79.3923 85.6014C79.6972 85.7122 79.9015 86.0052 79.8466 86.2521C79.7918 86.4989 80.0058 86.7009 80.3219 86.7009C80.6381 86.7009 81.0076 86.8804 81.1432 87.0998C81.2789 87.3193 81.3341 87.4741 81.2663 87.4443C81.1985 87.4144 80.6944 87.3098 80.1458 87.2113C79.0458 87.0139 78.0648 86.3019 78.8928 86.3019C79.1691 86.3019 79.2697 86.0986 79.1165 85.8507C78.9885 85.6437 79.0167 85.538 79.1819 85.5499ZM65.3844 85.8141C67.487 85.8141 67.5852 85.8619 66.7574 86.4881C65.7619 87.241 65.2035 87.2449 64.5865 86.5016C64.0603 85.8677 64.122 85.8141 65.3844 85.8141ZM85.1796 86.3019C85.5087 86.3019 85.6674 86.4814 85.5318 86.7008C85.3962 86.9202 85.0154 87.0998 84.6863 87.0998C84.3572 87.0998 84.1993 86.9202 84.3349 86.7008C84.4705 86.4814 84.8504 86.3019 85.1796 86.3019ZM82.7383 87.5214C83.0743 87.5008 83.3822 87.6581 83.5775 87.9975C83.7353 88.2717 83.7271 88.3724 83.5596 88.2219C83.3921 88.0712 82.7982 88.1225 82.2396 88.3348C81.3516 88.6724 81.2874 88.6439 81.7308 88.1096C82.0377 87.7397 82.4023 87.5418 82.7383 87.5214ZM63.0304 87.953C63.0707 87.9486 63.1669 87.9862 63.3093 88.0684C63.7085 88.2987 63.7199 88.4965 63.36 88.9302C63.103 89.2398 62.8035 89.4936 62.6937 89.4936C62.584 89.4936 62.694 89.2527 62.9384 88.9583C63.1828 88.6638 63.2499 88.276 63.0872 88.0965C63.0059 88.0067 62.9901 87.958 63.0304 87.953ZM73.0565 87.9694C73.2087 87.99 73.241 88.1519 73.1352 88.4276C72.9936 88.7966 73.1835 89.0968 73.6331 89.2131C74.1041 89.3347 73.9633 89.4169 73.2342 89.4468C72.3839 89.4818 72.1394 89.3303 72.2368 88.8281C72.3077 88.4623 72.5904 88.0881 72.8648 87.9967C72.9417 87.9711 73.0058 87.9626 73.0565 87.9694ZM81.3092 89.1437C81.4478 89.1492 81.5671 89.1858 81.6333 89.252C81.7659 89.3845 81.5303 89.4789 81.1097 89.4616C80.645 89.4425 80.5507 89.3482 80.8689 89.2208C81.0129 89.1632 81.1706 89.1381 81.3092 89.1437ZM27.9291 96.9125V109.591L78.5438 144.182L129.158 109.591V96.9187C127.365 97.2953 125.573 97.6719 123.78 98.0486C123.104 98.1905 122.428 98.3321 121.753 98.474L123.78 99.7426V102.437L117.856 99.293C117.309 99.4079 116.761 99.5232 116.214 99.6382L123.78 105.347V106.364L122.607 107.176L112.26 100.468C112.003 100.522 111.746 100.577 111.488 100.631L120.425 108.69L118.51 110.017L107.54 101.46C107.478 101.474 107.416 101.486 107.354 101.499L116.551 111.375L114.611 112.72L104.369 103.183L112.793 113.981L110.839 115.335L101.813 105.326L109.09 116.549L107.132 117.905L99.0823 107.239L105.386 119.116L103.433 120.47L96.1945 108.906L101.624 121.724L99.6831 123.071L93.172 110.316L97.7421 124.416L95.8236 125.746L90.038 111.456L93.6699 127.24L91.7904 128.542L86.8175 112.319L89.3242 130.253L87.5047 131.514L83.5331 112.898L84.599 133.529L82.8715 134.726L80.2113 113.189L79.3565 137.164L78.5438 137.727L77.731 137.164L76.8762 113.189L74.216 134.726L72.4885 133.529L73.5544 112.898L69.5828 131.514L67.7633 130.253L70.2701 112.319L65.2971 128.542L63.4176 127.24L67.0496 111.456L61.2639 125.746L59.3455 124.416L63.9155 110.316L57.4044 123.071L55.4634 121.724L60.893 108.906L53.6548 120.47L51.7014 119.116L58.0052 107.239L49.9551 117.905L47.9977 116.549L55.2741 105.326L46.2484 115.335L44.2949 113.981L52.719 103.183L42.4762 112.72L40.5368 111.375L49.7167 101.518C49.6528 101.504 49.5889 101.49 49.525 101.477L38.5778 110.017L36.6625 108.689L45.5822 100.646C45.323 100.592 45.0637 100.537 44.8045 100.483L34.4807 107.176L33.308 106.363V105.347L40.857 99.6505C40.3092 99.5347 39.7615 99.4182 39.2136 99.3022L33.308 102.437V99.7425L35.3262 98.4794C34.6534 98.3369 33.9807 98.1942 33.308 98.0516C31.515 97.6716 29.722 97.2922 27.9291 96.9125Z" fill="#646464"/>
</svg>
