<svg width="1366" height="1000" viewBox="0 0 1366 1000" fill="none" xmlns="http://www.w3.org/2000/svg">
<mask id="mask0_24_6" style="mask-type:luminance" maskUnits="userSpaceOnUse" x="0" y="0" width="1366" height="1000">
<path d="M1366 1000H0V0H1366V1000Z" fill="white"/>
</mask>
<g mask="url(#mask0_24_6)">
<mask id="mask1_24_6" style="mask-type:luminance" maskUnits="userSpaceOnUse" x="0" y="0" width="819" height="119">
<path d="M818.605 118.62H0.908752V0.0559387H818.605V118.62Z" fill="white"/>
</mask>
<g mask="url(#mask1_24_6)">
<path d="M818.605 0.0549316C697.536 70.0846 554.489 116.095 404.488 118.518C273.938 120.607 145.503 90.4483 40.1727 36.3826C26.6667 29.443 13.5744 22.1321 0.908783 14.497V6.90721C22.7466 20.2405 45.8451 32.6062 70.0923 43.7607C181.106 94.7371 313.812 119.151 445.843 110.595C577.632 102.018 701.297 60.4773 808.228 0.0549316H818.605Z" fill="#00378C" fill-opacity="0.4"/>
</g>
<mask id="mask2_24_6" style="mask-type:luminance" maskUnits="userSpaceOnUse" x="0" y="0" width="1044" height="201">
<path d="M1043.79 200.51H0.908813V0.0559387H1043.79V200.51Z" fill="white"/>
</mask>
<g mask="url(#mask2_24_6)">
<path d="M1043.79 0.0549316C884.383 122.628 649.141 214.745 399.872 198.691C272.913 190.462 148.515 154.65 44.4871 97.3073C29.4883 89.0288 14.9535 80.3219 0.908813 71.2488V62.9468C23.5579 77.7668 47.4677 91.6242 72.5099 104.287C181.342 159.216 309.367 190.501 437.792 193.742C671.068 199.554 885.074 112.572 1036.45 0.0549316H1043.79Z" fill="#00378C" fill-opacity="0.4"/>
</g>
<mask id="mask3_24_6" style="mask-type:luminance" maskUnits="userSpaceOnUse" x="0" y="0" width="1264" height="279">
<path d="M1263.34 278.624H0.908691V0.0559387H1263.34V278.624Z" fill="white"/>
</mask>
<g mask="url(#mask3_24_6)">
<path d="M1263.34 0.0549316C1205.73 49.6874 1135.33 101.531 1049.19 147.934C878.164 239.839 642.871 303.257 396.283 269.372C270.786 252.051 147.995 209.971 44.2322 147.479C29.3518 138.507 14.9015 129.136 0.908691 119.418V110.543C23.1732 126.203 46.5881 140.976 71.0302 154.672C179.039 215.103 304.961 253.455 431.82 266.674C680.118 292.445 910.357 221.865 1075.72 128.093C1147.95 87.0767 1208.46 42.8485 1259.32 0.0549316H1263.34Z" fill="#00378C" fill-opacity="0.4"/>
</g>
<mask id="mask4_24_6" style="mask-type:luminance" maskUnits="userSpaceOnUse" x="0" y="101" width="1366" height="250">
<path d="M1365.61 350.668H0.908875V101.502H1365.61V350.668Z" fill="white"/>
</mask>
<g mask="url(#mask4_24_6)">
<path d="M0.908569 148.745C18.7177 162.148 37.2422 174.991 56.4142 187.184C165.502 256.506 293.284 303.683 422.521 326.764C674.323 371.777 911.532 323.346 1088.71 251C1203.57 204.053 1294.2 149.398 1365.61 101.503V103.838C1289.15 156.092 1189.78 216.941 1061.78 266.744C879.655 337.432 638.169 379.557 388.178 327.356C260.239 300.583 135.493 250.094 30.567 178.954C20.4749 172.11 10.587 165.085 0.908569 157.897V148.745Z" fill="#00378C" fill-opacity="0.4"/>
</g>
<mask id="mask5_24_6" style="mask-type:luminance" maskUnits="userSpaceOnUse" x="0" y="173" width="1366" height="242">
<path d="M1365.61 414.191H0.908875V173.132H1365.61V414.191Z" fill="white"/>
</mask>
<g mask="url(#mask5_24_6)">
<path d="M0.908569 173.132C12.1252 182.237 23.6274 191.123 35.3958 199.766C143.079 278.738 270.875 336.164 401.768 369.85C662.024 436.693 913.649 406.449 1106.37 347.489C1208.1 316.353 1293.78 278.738 1365.61 242.693V245.307C1287.53 285.338 1192.63 327.579 1078.36 360.707C880.94 417.88 625.351 441.93 367.215 367.908C237.678 330.79 112.924 270.082 9.43347 189.311C6.573 187.076 3.73181 184.829 0.908569 182.568V173.132Z" fill="#00378C" fill-opacity="0.4"/>
</g>
<mask id="mask6_24_6" style="mask-type:luminance" maskUnits="userSpaceOnUse" x="0" y="184" width="1366" height="284">
<path d="M1365.61 467.062H0.908875V184.283H1365.61V467.062Z" fill="white"/>
</mask>
<g mask="url(#mask6_24_6)">
<path d="M0.908569 184.283C103.211 273.737 228.032 343.33 359.104 389.364C629.13 484.308 902.952 473.661 1117.73 422.759C1211.39 400.508 1293.69 371.769 1365.61 341.669V344.533C1286.04 378.502 1193.54 410.937 1086.98 434.414C867.366 482.808 589.796 486.225 322.535 383.577C204.81 338.359 93.6189 273.893 0.908569 193.818V184.283Z" fill="#00378C" fill-opacity="0.4"/>
</g>
<mask id="mask7_24_6" style="mask-type:luminance" maskUnits="userSpaceOnUse" x="0" y="181" width="1366" height="328">
<path d="M1365.61 508.776H0.908875V181.38H1365.61V508.776Z" fill="white"/>
</mask>
<g mask="url(#mask7_24_6)">
<path d="M0.908569 181.38C81.9285 258.028 178.27 323.084 281.976 373.336C556.723 506.263 858.569 524.856 1103.71 482.047C1200.61 465.1 1287.81 439.7 1365.61 410.423V413.19C1278.08 446.764 1178.48 475.569 1066.67 492.708C940.741 511.939 801.421 515.506 657.19 494.608C516.261 474.078 372.923 430.316 240.644 360.522C152.653 314.11 71.0673 256.78 0.908569 191.086V181.38Z" fill="#00378C" fill-opacity="0.4"/>
</g>
<mask id="mask8_24_6" style="mask-type:luminance" maskUnits="userSpaceOnUse" x="0" y="164" width="1366" height="374">
<path d="M1365.61 537.386H0.908875V164.16H1365.61V537.386Z" fill="white"/>
</mask>
<g mask="url(#mask8_24_6)">
<path d="M0.908203 164.161C14.7355 178.477 29.074 192.478 43.8877 206.125C147.487 301.476 272.765 378.37 406.615 432.808C650.523 531.777 909.634 550.911 1132.1 516.05C1216.09 502.898 1294.06 482.506 1365.61 457.476V460.192C1281.57 490.129 1188.61 513.771 1087.45 526.749C844.626 557.696 562.731 523.087 310.341 396.946C194.3 338.867 88.0321 263.127 0.908203 174.222V164.161Z" fill="#00378C" fill-opacity="0.4"/>
</g>
<mask id="mask9_24_6" style="mask-type:luminance" maskUnits="userSpaceOnUse" x="0" y="131" width="1366" height="425">
<path d="M1365.61 555.448H0.908875V131.478H1365.61V555.448Z" fill="white"/>
</mask>
<g mask="url(#mask9_24_6)">
<path d="M0.908203 131.479C37.7285 173.162 78.5808 212.773 122.831 249.688C272.943 374.765 458.993 465.271 652.514 512.38C906.706 574.071 1156.69 553.487 1365.61 486.263V492.035C1308.94 510.952 1248.91 526.323 1185.93 537.152C995.871 569.731 782.99 560.018 576.722 498.213C389.077 441.912 212.367 344.369 73.5348 215.959C47.8987 192.228 23.6433 167.557 0.908203 142.108V131.479Z" fill="#00378C" fill-opacity="0.4"/>
</g>
<mask id="mask10_24_6" style="mask-type:luminance" maskUnits="userSpaceOnUse" x="0" y="74" width="1366" height="490">
<path d="M1365.61 563.025H0.908875V74.1713H1365.61V563.025Z" fill="white"/>
</mask>
<g mask="url(#mask10_24_6)">
<path d="M0.908691 74.1712C48.7704 134.864 104.636 192.877 167.623 246.229C257.964 322.673 362.268 388.996 475.977 440.552C593.747 493.876 720.181 530.788 848.426 548.262C1028.43 572.731 1206.97 555.581 1365.61 507.236V509.287C1189.21 563.588 987.822 579.757 787 543.82C658.107 520.638 532.239 478.167 416.37 419.49C304.9 363.007 203.913 292.258 117.98 212.087C74.9485 171.948 35.8225 129.587 0.908691 85.7792V74.1712Z" fill="#00378C" fill-opacity="0.4"/>
</g>
<mask id="mask11_24_6" style="mask-type:luminance" maskUnits="userSpaceOnUse" x="1" y="0" width="1365" height="565">
<path d="M1365.61 564.222H1.06451V0.0559387H1365.61V564.222Z" fill="white"/>
</mask>
<g mask="url(#mask11_24_6)">
<path d="M10.6469 0.0548401C41.7737 44.0815 76.9552 88.0325 116.461 130.966C181.28 201.356 257.722 268.942 345.216 328.981C436.171 391.344 538.522 445.186 649.223 485.289C762.749 526.357 883.932 552.451 1006.66 559.095C1129.21 565.665 1251.58 551.498 1365.61 519.075V520.978C1235.92 558.342 1095.19 572.373 955.363 559.621C831.998 548.246 711.169 517.722 598.753 472.671C489.416 428.796 389.077 371.672 300.629 306.531C215.689 244.002 142.141 174.409 80.3835 102.506C51.3872 68.7272 24.995 34.4322 1.06409 0.0548401H10.6469Z" fill="#00378C" fill-opacity="0.4"/>
</g>
<mask id="mask12_24_6" style="mask-type:luminance" maskUnits="userSpaceOnUse" x="98" y="0" width="1268" height="558">
<path d="M1365.61 557.521H98.0324V0.0559387H1365.61V557.521Z" fill="white"/>
</mask>
<g mask="url(#mask12_24_6)">
<path d="M110.646 0.0548401C119.364 12.266 128.437 24.6048 137.893 37.0578C223.795 150.044 344.708 273.812 508.314 374.076C682.059 480.477 902.065 557.131 1134.91 554.063C1212.67 552.948 1290.51 542.502 1365.61 523.148V525.016C1276.52 548.35 1183.46 559.301 1091.1 557.285C857.695 551.911 640.585 469.024 470.33 358.803C310.435 255.194 193.231 130.074 110.063 16.7009C105.981 11.1287 101.97 5.57833 98.032 0.0548401H110.646Z" fill="#00378C" fill-opacity="0.4"/>
</g>
<mask id="mask13_24_6" style="mask-type:luminance" maskUnits="userSpaceOnUse" x="260" y="0" width="1106" height="544">
<path d="M1365.61 543.971H260.875V0.0559387H1365.61V543.971Z" fill="white"/>
</mask>
<g mask="url(#mask13_24_6)">
<path d="M277.324 0.0548401C293.173 30.2828 312.066 61.8447 334.519 94.6462C401.919 192.68 506.135 302.029 655.027 391.472C811.7 485.433 1017.07 554.105 1238.11 538.847C1280.64 535.889 1323.36 529.71 1365.61 520.326V522.077C1310.83 534.498 1255.2 541.634 1200.1 543.492C978.966 550.638 777.039 476.817 623.694 380.299C478.161 288.644 376.796 179.108 310.886 81.9916C291.752 53.6468 275.191 26.3116 260.875 0.0548401H277.324Z" fill="#00378C" fill-opacity="0.4"/>
</g>
<mask id="mask14_24_6" style="mask-type:luminance" maskUnits="userSpaceOnUse" x="488" y="0" width="878" height="525">
<path d="M1365.61 524.753H488.118V0.0559387H1365.61V524.753Z" fill="white"/>
</mask>
<g mask="url(#mask14_24_6)">
<path d="M503.112 0.0548401C508.924 33.8056 518.294 67.3564 532.084 101.089C573.005 200.642 655.48 303.279 785.869 387.657C922.662 476.125 1111.68 540.439 1319.91 517.496C1335.12 515.806 1350.37 513.637 1365.61 510.988V512.667C1339.25 517.403 1312.87 520.729 1286.67 522.661C1078.83 537.794 893.865 468.879 760.71 378.496C633.939 292.425 554.261 190.276 514.861 92.2642C502.489 61.3659 493.794 30.7263 488.118 0.0548401H503.112Z" fill="#00378C" fill-opacity="0.4"/>
</g>
<mask id="mask15_24_6" style="mask-type:luminance" maskUnits="userSpaceOnUse" x="702" y="0" width="664" height="502">
<path d="M1365.61 501.015H702.944V0.0559387H1365.61V501.015Z" fill="white"/>
</mask>
<g mask="url(#mask15_24_6)">
<path d="M712.825 0.0548401C713.33 21.455 714.811 42.2487 717.55 62.4981C733.766 181.112 790.79 289.722 904.381 375.066C1015.54 458.444 1180.86 515.197 1365.61 494.98V496.604C1361.84 497.038 1358.08 497.439 1354.32 497.807C1163.29 516.073 995.244 454.199 884.459 366.377C775.004 279.364 721.22 171.286 706.731 54.018C704.612 36.438 703.41 18.4631 702.944 0.0548401H712.825Z" fill="#00378C" fill-opacity="0.4"/>
</g>
<mask id="mask16_24_6" style="mask-type:luminance" maskUnits="userSpaceOnUse" x="876" y="0" width="490" height="474">
<path d="M1365.61 473.549H876.371V0.0559387H1365.61V473.549Z" fill="white"/>
</mask>
<g mask="url(#mask16_24_6)">
<path d="M882.179 0.0548401C883.588 139.76 917.418 254.695 1007.14 341.915C1089.13 421.444 1216.63 475.735 1365.61 471.896V473.289C1207.65 477.974 1074.78 418.425 992.059 332.68C908.737 246.068 877.88 134.515 876.371 0.0548401H882.179Z" fill="#00378C" fill-opacity="0.4"/>
</g>
<mask id="mask17_24_6" style="mask-type:luminance" maskUnits="userSpaceOnUse" x="1017" y="0" width="349" height="442">
<path d="M1365.61 441.357H1017.19V0.0559387H1365.61V441.357Z" fill="white"/>
</mask>
<g mask="url(#mask17_24_6)">
<path d="M1020.18 0.0548401C1024.22 122.114 1043.78 220.551 1099.1 296.153C1156.69 374.491 1250.47 428.99 1365.61 440.276V441.356C1243.3 429.923 1145.7 370.532 1088.23 285.529C1038.28 211.212 1020.88 116.335 1017.19 0.0548401H1020.18Z" fill="#00378C" fill-opacity="0.4"/>
</g>
<mask id="mask18_24_6" style="mask-type:luminance" maskUnits="userSpaceOnUse" x="1133" y="0" width="233" height="398">
<path d="M1365.61 397.312H1133.21V0.0559387H1365.61V397.312Z" fill="white"/>
</mask>
<g mask="url(#mask18_24_6)">
<path d="M1134.62 0.0548401C1139.65 95.5937 1151.18 175.09 1181.75 238.401C1219.25 315.534 1283.05 371.486 1365.61 396.557V397.311C1277.65 371.027 1211.31 310.103 1174.46 225.693C1147.84 164.642 1137.69 89.3395 1133.21 0.0548401H1134.62Z" fill="#00378C" fill-opacity="0.4"/>
</g>
<mask id="mask19_24_6" style="mask-type:luminance" maskUnits="userSpaceOnUse" x="1230" y="0" width="136" height="333">
<path d="M1365.61 332.024H1230.09V0.0559387H1365.61V332.024Z" fill="white"/>
</mask>
<g mask="url(#mask19_24_6)">
<path d="M1230.09 0.0548401C1234.61 64.4972 1241.72 120.938 1256.11 168.751C1277.73 240.31 1315.04 295.921 1365.61 332.023V328.98C1315.23 294.06 1279.86 242.517 1258.68 177.021C1242.9 127.796 1235.57 68.2215 1231.11 0.0548401H1230.09Z" fill="#00378C" fill-opacity="0.4"/>
</g>
<mask id="mask20_24_6" style="mask-type:luminance" maskUnits="userSpaceOnUse" x="1311" y="0" width="55" height="219">
<path d="M1365.61 218.722H1311.14V0.0559387H1365.61V218.722Z" fill="white"/>
</mask>
<g mask="url(#mask20_24_6)">
<path d="M1311.14 0.0548401C1314.09 31.2706 1317.71 60.3193 1322.6 87.0212C1332.02 137.925 1346.37 182.004 1365.61 218.721V216.402C1344.74 175.751 1329.71 126.193 1320.38 68.3811C1316.93 46.9978 1314.18 24.1882 1311.85 0.0548401H1311.14Z" fill="#00378C" fill-opacity="0.4"/>
</g>
</g>
</svg>
