<svg width="150" height="150" viewBox="0 0 150 150" fill="none" xmlns="http://www.w3.org/2000/svg">
<path fill-rule="evenodd" clip-rule="evenodd" d="M49.0279 86.4984C49.5804 85.582 50.1547 85.2618 50.987 84.6805C58.8418 79.1944 72.8693 73.2694 72.8693 73.2694C73.8621 72.7524 75.2168 72.5332 76.2721 72.5495L93.0057 72.8085C95.5318 73.0118 97.5802 74.6937 95.6555 76.2288C91.0731 79.7329 83.3604 79.3119 77.6346 80.793C75.495 81.1799 76.3791 84.6131 78.024 84.8816L91.5176 83.5322C92.5795 83.426 93.5787 83.2096 94.5916 82.9101C101.958 80.7315 110.709 77.6409 115.984 74.197C117.049 73.5014 119.464 71.98 120.118 70.9155L128.644 57.0405C129.507 55.6369 133.949 53.2305 133.145 57.7021C129.376 67.2362 124.931 75.749 118.47 86.4799C117.842 87.5234 117.4 88.0413 116.451 88.6997C112.415 91.4988 106.472 94.9336 99.7563 98.6261C98.7203 99.1957 97.8871 99.2734 96.7742 99.464C87.4927 101.054 75.2977 99.3571 66.6218 101.526C60.4816 106.862 57.6906 127.218 50.9578 137.703H20.4562C26.5029 120.148 38.5103 103.946 49.0324 86.4967L49.0279 86.4984Z" fill="#646464"/>
<path fill-rule="evenodd" clip-rule="evenodd" d="M17.5645 137.705H12.2951V108.064C22.7267 97.9308 32.6737 87.8808 42.1303 76.7017C44.5467 77.952 48.478 79.6441 50.7413 80.4371C46.4651 83.3216 28.5069 113.386 17.5643 137.705L17.5645 137.705Z" fill="#424242"/>
<path fill-rule="evenodd" clip-rule="evenodd" d="M14.7541 55.8737H123.782C117.848 62.1038 113.587 68.334 100.419 74.5642C100.419 74.5642 100.203 72.6752 98.6786 71.468C94.1813 70.1768 79.515 68.9586 75.6167 69.5098C66.2752 71.1294 54.3268 79.5379 54.3268 79.5379C35.3604 73.1617 21.6293 65.1182 14.7563 55.8723L14.7541 55.8737Z" fill="#A6A6A6"/>
</svg>
