<svg width="1366" height="1000" viewBox="0 0 1366 1000" fill="none" xmlns="http://www.w3.org/2000/svg">
<g clip-path="url(#clip0_24_113)">
<mask id="mask0_24_113" style="mask-type:luminance" maskUnits="userSpaceOnUse" x="0" y="0" width="1366" height="1000">
<path d="M1366 1000L-2.12047e-05 1000L-2.12047e-05 0L1366 0L1366 1000Z" fill="white"/>
</mask>
<g mask="url(#mask0_24_113)">
<mask id="mask1_24_113" style="mask-type:luminance" maskUnits="userSpaceOnUse" x="0" y="0" width="819" height="119">
<path d="M818.605 118.62L0.908782 118.62V0.0559387L818.605 0.0559387V118.62Z" fill="white"/>
</mask>
<g mask="url(#mask1_24_113)">
<path d="M818.605 0.0549316C697.536 70.0846 554.489 116.095 404.488 118.518C273.938 120.607 145.503 90.4483 40.1727 36.3826C26.6667 29.443 13.5744 22.1321 0.908813 14.497V6.90721C22.7466 20.2405 45.8451 32.6062 70.0923 43.7607C181.106 94.7371 313.812 119.151 445.843 110.595C577.632 102.018 701.297 60.4773 808.228 0.0549316L818.605 0.0549316Z" fill="#00378C" fill-opacity="0.4"/>
</g>
<mask id="mask2_24_113" style="mask-type:luminance" maskUnits="userSpaceOnUse" x="0" y="0" width="1044" height="201">
<path d="M1043.79 200.51L0.908836 200.51V0.0559387L1043.79 0.0559387V200.51Z" fill="white"/>
</mask>
<g mask="url(#mask2_24_113)">
<path d="M1043.79 0.0549316C884.383 122.628 649.141 214.745 399.872 198.691C272.913 190.462 148.515 154.65 44.4871 97.3073C29.4883 89.0288 14.9535 80.3219 0.908836 71.2488V62.9468C23.5579 77.7668 47.4677 91.6242 72.5099 104.287C181.342 159.216 309.367 190.501 437.792 193.742C671.068 199.554 885.074 112.572 1036.45 0.0549316L1043.79 0.0549316Z" fill="#00378C" fill-opacity="0.4"/>
</g>
<mask id="mask3_24_113" style="mask-type:luminance" maskUnits="userSpaceOnUse" x="0" y="0" width="1264" height="279">
<path d="M1263.34 278.624L0.908729 278.624V0.0559387L1263.34 0.0559387V278.624Z" fill="white"/>
</mask>
<g mask="url(#mask3_24_113)">
<path d="M1263.34 0.0549316C1205.73 49.6874 1135.33 101.531 1049.19 147.934C878.164 239.839 642.871 303.257 396.283 269.372C270.786 252.051 147.995 209.971 44.2321 147.479C29.3518 138.507 14.9015 129.136 0.908729 119.418V110.543C23.1732 126.203 46.5882 140.976 71.0301 154.672C179.039 215.103 304.961 253.455 431.82 266.674C680.118 292.445 910.357 221.865 1075.72 128.093C1147.95 87.0767 1208.46 42.8485 1259.32 0.0549316L1263.34 0.0549316Z" fill="#00378C" fill-opacity="0.4"/>
</g>
<mask id="mask4_24_113" style="mask-type:luminance" maskUnits="userSpaceOnUse" x="0" y="101" width="1366" height="250">
<path d="M1365.61 350.668L0.908923 350.668V101.502L1365.61 101.502V350.668Z" fill="white"/>
</mask>
<g mask="url(#mask4_24_113)">
<path d="M0.908614 148.745C18.7176 162.148 37.2422 174.991 56.4142 187.184C165.502 256.506 293.284 303.683 422.521 326.764C674.323 371.777 911.532 323.346 1088.71 251C1203.57 204.053 1294.2 149.398 1365.61 101.503V103.838C1289.15 156.092 1189.78 216.941 1061.78 266.744C879.655 337.432 638.169 379.557 388.178 327.356C260.239 300.583 135.493 250.094 30.567 178.954C20.4748 172.11 10.5871 165.085 0.908614 157.897V148.745Z" fill="#00378C" fill-opacity="0.4"/>
</g>
<mask id="mask5_24_113" style="mask-type:luminance" maskUnits="userSpaceOnUse" x="0" y="173" width="1366" height="242">
<path d="M1365.61 414.191L0.908923 414.191V173.132L1365.61 173.132V414.191Z" fill="white"/>
</mask>
<g mask="url(#mask5_24_113)">
<path d="M0.908614 173.132C12.1252 182.237 23.6274 191.123 35.3957 199.766C143.079 278.738 270.875 336.164 401.768 369.85C662.024 436.693 913.649 406.449 1106.37 347.489C1208.1 316.353 1293.78 278.738 1365.61 242.693V245.307C1287.53 285.338 1192.63 327.579 1078.36 360.707C880.94 417.88 625.351 441.93 367.215 367.908C237.678 330.79 112.924 270.082 9.43348 189.311C6.57295 187.076 3.73183 184.829 0.908614 182.568V173.132Z" fill="#00378C" fill-opacity="0.4"/>
</g>
<mask id="mask6_24_113" style="mask-type:luminance" maskUnits="userSpaceOnUse" x="0" y="184" width="1366" height="284">
<path d="M1365.61 467.062L0.908923 467.062V184.283L1365.61 184.283V467.062Z" fill="white"/>
</mask>
<g mask="url(#mask6_24_113)">
<path d="M0.908614 184.283C103.211 273.737 228.032 343.33 359.104 389.364C629.13 484.308 902.952 473.661 1117.73 422.759C1211.39 400.508 1293.69 371.769 1365.61 341.669V344.533C1286.04 378.502 1193.54 410.937 1086.98 434.414C867.366 482.808 589.796 486.225 322.535 383.577C204.81 338.359 93.6189 273.893 0.908614 193.818V184.283Z" fill="#00378C" fill-opacity="0.4"/>
</g>
<mask id="mask7_24_113" style="mask-type:luminance" maskUnits="userSpaceOnUse" x="0" y="181" width="1366" height="328">
<path d="M1365.61 508.776L0.908923 508.776L0.908923 181.38L1365.61 181.38L1365.61 508.776Z" fill="white"/>
</mask>
<g mask="url(#mask7_24_113)">
<path d="M0.908614 181.38C81.9285 258.028 178.27 323.084 281.976 373.336C556.723 506.263 858.569 524.856 1103.71 482.047C1200.61 465.1 1287.81 439.7 1365.61 410.423V413.19C1278.08 446.764 1178.48 475.569 1066.67 492.708C940.741 511.939 801.421 515.506 657.19 494.608C516.261 474.078 372.923 430.316 240.644 360.522C152.653 314.11 71.0672 256.78 0.908614 191.086V181.38Z" fill="#00378C" fill-opacity="0.4"/>
</g>
<mask id="mask8_24_113" style="mask-type:luminance" maskUnits="userSpaceOnUse" x="0" y="164" width="1366" height="374">
<path d="M1365.61 537.386L0.908923 537.386L0.908923 164.16L1365.61 164.16L1365.61 537.386Z" fill="white"/>
</mask>
<g mask="url(#mask8_24_113)">
<path d="M0.908248 164.161C14.7355 178.477 29.0739 192.478 43.8877 206.125C147.487 301.476 272.765 378.37 406.615 432.808C650.523 531.777 909.634 550.911 1132.1 516.05C1216.09 502.898 1294.06 482.506 1365.61 457.476V460.192C1281.57 490.129 1188.61 513.771 1087.45 526.749C844.626 557.696 562.731 523.087 310.341 396.946C194.3 338.867 88.0321 263.127 0.908248 174.222V164.161Z" fill="#00378C" fill-opacity="0.4"/>
</g>
<mask id="mask9_24_113" style="mask-type:luminance" maskUnits="userSpaceOnUse" x="0" y="131" width="1366" height="425">
<path d="M1365.61 555.448L0.908923 555.448L0.908923 131.478L1365.61 131.478L1365.61 555.448Z" fill="white"/>
</mask>
<g mask="url(#mask9_24_113)">
<path d="M0.908248 131.479C37.7285 173.162 78.5809 212.773 122.831 249.688C272.943 374.765 458.993 465.271 652.514 512.38C906.706 574.071 1156.69 553.487 1365.61 486.263V492.035C1308.94 510.952 1248.91 526.323 1185.93 537.152C995.871 569.731 782.99 560.018 576.722 498.213C389.077 441.912 212.367 344.369 73.5348 215.959C47.8987 192.228 23.6433 167.557 0.908248 142.108V131.479Z" fill="#00378C" fill-opacity="0.4"/>
</g>
<mask id="mask10_24_113" style="mask-type:luminance" maskUnits="userSpaceOnUse" x="0" y="74" width="1366" height="490">
<path d="M1365.61 563.025L0.908923 563.025L0.908923 74.1713L1365.61 74.1713L1365.61 563.025Z" fill="white"/>
</mask>
<g mask="url(#mask10_24_113)">
<path d="M0.908736 74.1712C48.7704 134.864 104.636 192.877 167.623 246.229C257.965 322.673 362.268 388.996 475.977 440.552C593.747 493.876 720.181 530.788 848.426 548.262C1028.43 572.731 1206.97 555.581 1365.61 507.236V509.287C1189.21 563.588 987.822 579.757 787 543.82C658.107 520.638 532.239 478.167 416.37 419.49C304.9 363.007 203.913 292.258 117.98 212.087C74.9485 171.948 35.8225 129.587 0.908736 85.7792V74.1712Z" fill="#00378C" fill-opacity="0.4"/>
</g>
<mask id="mask11_24_113" style="mask-type:luminance" maskUnits="userSpaceOnUse" x="1" y="0" width="1365" height="565">
<path d="M1365.61 564.222L1.0645 564.222L1.0645 0.0559387L1365.61 0.0559387L1365.61 564.222Z" fill="white"/>
</mask>
<g mask="url(#mask11_24_113)">
<path d="M10.6469 0.0548401C41.7737 44.0815 76.9552 88.0325 116.461 130.966C181.28 201.356 257.722 268.942 345.216 328.981C436.171 391.344 538.522 445.186 649.223 485.289C762.749 526.357 883.932 552.451 1006.66 559.095C1129.21 565.665 1251.58 551.498 1365.61 519.075V520.978C1235.92 558.342 1095.19 572.373 955.363 559.621C831.998 548.246 711.169 517.722 598.753 472.671C489.416 428.795 389.077 371.672 300.629 306.531C215.689 244.002 142.141 174.409 80.3836 102.506C51.3872 68.7272 24.995 34.4322 1.06413 0.0548401L10.6469 0.0548401Z" fill="#00378C" fill-opacity="0.4"/>
</g>
<mask id="mask12_24_113" style="mask-type:luminance" maskUnits="userSpaceOnUse" x="98" y="0" width="1268" height="558">
<path d="M1365.61 557.521L98.0324 557.521L98.0324 0.0559387L1365.61 0.0559387L1365.61 557.521Z" fill="white"/>
</mask>
<g mask="url(#mask12_24_113)">
<path d="M110.646 0.0548401C119.363 12.266 128.437 24.6048 137.893 37.0578C223.795 150.044 344.708 273.812 508.314 374.076C682.059 480.477 902.065 557.131 1134.91 554.063C1212.67 552.948 1290.51 542.502 1365.61 523.148V525.016C1276.52 548.35 1183.46 559.301 1091.1 557.285C857.695 551.911 640.585 469.024 470.33 358.803C310.435 255.194 193.231 130.074 110.063 16.7009C105.981 11.1287 101.97 5.57833 98.032 0.0548401L110.646 0.0548401Z" fill="#00378C" fill-opacity="0.4"/>
</g>
<mask id="mask13_24_113" style="mask-type:luminance" maskUnits="userSpaceOnUse" x="260" y="0" width="1106" height="544">
<path d="M1365.61 543.971L260.875 543.971L260.875 0.0559387L1365.61 0.0559387L1365.61 543.971Z" fill="white"/>
</mask>
<g mask="url(#mask13_24_113)">
<path d="M277.324 0.0548401C293.173 30.2828 312.066 61.8447 334.519 94.6462C401.919 192.68 506.135 302.029 655.027 391.472C811.7 485.433 1017.07 554.105 1238.11 538.847C1280.64 535.889 1323.36 529.71 1365.61 520.326V522.077C1310.83 534.498 1255.2 541.634 1200.1 543.492C978.966 550.638 777.039 476.817 623.694 380.299C478.161 288.644 376.796 179.108 310.887 81.9916C291.752 53.6468 275.191 26.3116 260.875 0.0548401L277.324 0.0548401Z" fill="#00378C" fill-opacity="0.4"/>
</g>
<mask id="mask14_24_113" style="mask-type:luminance" maskUnits="userSpaceOnUse" x="488" y="0" width="878" height="525">
<path d="M1365.61 524.753L488.118 524.753L488.118 0.0559387L1365.61 0.0559387L1365.61 524.753Z" fill="white"/>
</mask>
<g mask="url(#mask14_24_113)">
<path d="M503.112 0.0548401C508.924 33.8056 518.294 67.3564 532.084 101.089C573.005 200.642 655.48 303.279 785.869 387.657C922.662 476.125 1111.68 540.439 1319.91 517.496C1335.12 515.806 1350.37 513.637 1365.61 510.988V512.667C1339.25 517.403 1312.87 520.729 1286.67 522.661C1078.83 537.794 893.865 468.879 760.71 378.496C633.939 292.425 554.261 190.276 514.861 92.2642C502.489 61.3659 493.794 30.7263 488.118 0.0548401L503.112 0.0548401Z" fill="#00378C" fill-opacity="0.4"/>
</g>
<mask id="mask15_24_113" style="mask-type:luminance" maskUnits="userSpaceOnUse" x="702" y="0" width="664" height="502">
<path d="M1365.61 501.015L702.944 501.015L702.944 0.0559387L1365.61 0.0559387L1365.61 501.015Z" fill="white"/>
</mask>
<g mask="url(#mask15_24_113)">
<path d="M712.825 0.0548401C713.33 21.455 714.811 42.2487 717.55 62.4981C733.766 181.112 790.79 289.722 904.381 375.066C1015.54 458.444 1180.86 515.197 1365.61 494.98V496.604C1361.84 497.038 1358.08 497.439 1354.32 497.807C1163.29 516.073 995.244 454.199 884.459 366.377C775.004 279.364 721.22 171.286 706.731 54.018C704.612 36.438 703.41 18.4631 702.944 0.0548401L712.825 0.0548401Z" fill="#00378C" fill-opacity="0.4"/>
</g>
<mask id="mask16_24_113" style="mask-type:luminance" maskUnits="userSpaceOnUse" x="876" y="0" width="490" height="474">
<path d="M1365.61 473.549L876.371 473.549L876.371 0.0559387L1365.61 0.0559387L1365.61 473.549Z" fill="white"/>
</mask>
<g mask="url(#mask16_24_113)">
<path d="M882.179 0.0548401C883.588 139.76 917.418 254.695 1007.14 341.915C1089.13 421.444 1216.63 475.735 1365.61 471.896V473.289C1207.65 477.974 1074.78 418.425 992.059 332.68C908.737 246.068 877.88 134.515 876.371 0.0548401L882.179 0.0548401Z" fill="#00378C" fill-opacity="0.4"/>
</g>
<mask id="mask17_24_113" style="mask-type:luminance" maskUnits="userSpaceOnUse" x="1017" y="0" width="349" height="442">
<path d="M1365.61 441.357L1017.19 441.357L1017.19 0.0559387L1365.61 0.0559387L1365.61 441.357Z" fill="white"/>
</mask>
<g mask="url(#mask17_24_113)">
<path d="M1020.18 0.0548401C1024.22 122.114 1043.78 220.551 1099.1 296.153C1156.69 374.491 1250.47 428.99 1365.61 440.276V441.356C1243.3 429.923 1145.7 370.532 1088.23 285.529C1038.28 211.212 1020.88 116.335 1017.19 0.0548401L1020.18 0.0548401Z" fill="#00378C" fill-opacity="0.4"/>
</g>
<mask id="mask18_24_113" style="mask-type:luminance" maskUnits="userSpaceOnUse" x="1133" y="0" width="233" height="398">
<path d="M1365.61 397.312L1133.21 397.312L1133.21 0.0559387L1365.61 0.0559387L1365.61 397.312Z" fill="white"/>
</mask>
<g mask="url(#mask18_24_113)">
<path d="M1134.62 0.0548401C1139.65 95.5937 1151.18 175.09 1181.75 238.401C1219.25 315.534 1283.05 371.486 1365.61 396.557V397.311C1277.65 371.027 1211.31 310.103 1174.46 225.693C1147.84 164.642 1137.69 89.3395 1133.21 0.0548401L1134.62 0.0548401Z" fill="#00378C" fill-opacity="0.4"/>
</g>
<mask id="mask19_24_113" style="mask-type:luminance" maskUnits="userSpaceOnUse" x="1230" y="0" width="136" height="333">
<path d="M1365.61 332.024L1230.09 332.024V0.0559387L1365.61 0.0559387L1365.61 332.024Z" fill="white"/>
</mask>
<g mask="url(#mask19_24_113)">
<path d="M1230.09 0.0548401C1234.61 64.4972 1241.72 120.938 1256.11 168.751C1277.73 240.31 1315.04 295.921 1365.61 332.023V328.98C1315.23 294.06 1279.86 242.517 1258.68 177.021C1242.9 127.796 1235.57 68.2215 1231.11 0.0548401L1230.09 0.0548401Z" fill="#00378C" fill-opacity="0.4"/>
</g>
<mask id="mask20_24_113" style="mask-type:luminance" maskUnits="userSpaceOnUse" x="1311" y="0" width="55" height="219">
<path d="M1365.61 218.722L1311.14 218.722V0.0559387L1365.61 0.0559387V218.722Z" fill="white"/>
</mask>
<g mask="url(#mask20_24_113)">
<path d="M1311.14 0.0548401C1314.09 31.2706 1317.71 60.3193 1322.6 87.0212C1332.02 137.925 1346.37 182.004 1365.61 218.721V216.402C1344.74 175.751 1329.71 126.193 1320.38 68.3811C1316.93 46.9978 1314.18 24.1882 1311.85 0.0548401L1311.14 0.0548401Z" fill="#00378C" fill-opacity="0.4"/>
</g>
</g>
</g>
<path d="M747.015 675.017C744.317 674.194 741.623 672.247 740.336 670.225C738.736 667.679 738.597 664.271 739.749 655.735C741.005 646.449 740.958 640.982 739.575 635.778C738.021 629.877 735.648 624.448 730.468 614.922C724.021 603.064 723.696 602.409 720.906 595.482C718.451 589.398 716.059 584.538 714.644 582.759L713.925 581.861L712.456 584.444C711.645 585.863 709.646 589.3 708.007 592.082C702.673 601.147 699.531 607.73 697.989 613.069C696.338 618.798 695.994 622.186 695.65 636.077C695.233 652.926 694.58 657.532 691.723 663.635C690.432 666.406 689.659 666.93 685.825 667.716C681.028 668.69 675.029 666.93 673.035 664.009L672.1 662.661L673.796 656.296C674.728 652.777 677.263 643.79 679.428 636.264C689.311 601.93 692.775 585.83 694.746 564.989C695.422 557.826 695.728 536.237 695.156 535.683C694.58 535.121 691.974 535.499 688.89 536.589C683.282 538.573 684.113 539.09 681.353 531.89C672.339 508.372 664.651 486.165 658.374 465.538C656.967 460.914 655.607 456.994 655.348 456.825C655.089 456.661 654.443 456.612 653.914 456.721C653.38 456.829 651.336 457.024 649.368 457.159C644.092 457.514 644.247 457.75 644.258 449.273C644.262 445.548 644.521 438.876 644.83 434.45C645.399 426.325 645.542 422.214 645.252 422.498C645.163 422.584 644.649 424.677 644.111 427.149C639.883 446.592 639.871 466.662 644.084 478.314C644.633 479.826 645.167 481.328 645.271 481.65C645.391 482.024 645.089 482.399 644.421 482.691C643.037 483.301 641.912 482.59 640.331 480.103C639.322 478.516 638.244 477.509 637.548 477.509C637.027 477.509 636.4 480.523 635.94 485.27C635.438 490.49 634.51 494.358 633.764 494.358C633.088 494.358 631.318 493.324 630.452 492.422C628.376 490.273 628.21 489.277 628.21 479.194C628.21 474.045 628.071 469.627 627.905 469.376C627.584 468.897 625.736 468.331 623.286 467.961C622.489 467.837 621.682 467.452 621.484 467.096C621.075 466.358 621.658 456.17 623.375 434.075C624.008 425.939 624.878 414.482 625.307 408.615C628.446 365.822 631.059 345.127 634.661 334.576C636.056 330.491 637.405 328.323 639.017 327.585C639.663 327.29 643.06 326.522 646.57 325.878C657.98 323.781 662.467 322.355 666.974 319.382C668.775 318.191 669.054 318.109 669.293 318.67C669.444 319.026 669.556 329.255 669.545 341.405L669.521 363.496L668.273 373.231C667.589 378.586 666.866 383.977 666.669 385.213C665.989 389.508 665.123 399.085 665.123 402.38C665.123 404.949 665.235 405.657 665.625 405.511C665.9 405.409 673.99 403.26 683.599 400.737L701.069 396.15V393.866C701.065 390.069 700.327 376.298 699.728 368.926C698.804 357.569 698.395 348.845 698.167 335.789C698.047 328.993 697.846 322.699 697.718 321.808L697.49 320.183L699.345 321.553C702.326 323.755 705.344 325.043 714.791 328.128C719.68 329.727 724.581 331.446 725.687 331.947C727.434 332.741 728.798 334.104 736.285 342.559C750.645 358.779 755.086 363.627 760.992 369.532C767.203 375.744 769.975 379.402 771.08 382.843C773.02 388.882 771.157 392.424 761.243 401.53C758.939 403.646 754.854 407.735 752.16 410.621C747.286 415.833 742.926 419.578 740.081 420.982C738.419 421.802 735.153 421.97 733.8 421.3C733.336 421.072 732.034 420.02 730.901 418.96C728.911 417.099 728.856 417.073 729.119 418.162C729.711 420.592 731.423 424.168 734.013 428.369C737.924 434.712 738.794 436.764 739.316 440.856C740.352 449.004 741.859 459.304 744.534 476.573C748.009 498.997 750.069 514.131 749.682 514.378C749.624 514.416 748.376 514.652 746.907 514.906C743.66 515.464 741.318 516.411 735.277 519.613C731.388 521.672 729.088 522.604 725.954 523.391C725.687 523.458 725.934 524.327 726.603 525.682C728.018 528.546 728.787 532.545 729.289 539.663C729.83 547.286 730.607 550.282 734.094 558.13C738.697 568.509 739.861 573.298 741.275 587.739C743.173 607.127 743.908 612.028 745.662 617.023C746.783 620.224 747.634 621.872 750.807 627.001C752.179 629.214 753.969 632.408 754.788 634.13C757.559 639.859 759.079 649.032 759.809 664.309C760.257 673.707 760.462 672.883 757.308 674.531C755.302 675.579 749.694 675.841 747.015 675.017Z" fill="#00378C"/>
<path d="M740.549 395.128C742.752 393.375 745.465 391.38 746.582 390.691C749.068 389.159 750.544 387.516 750.544 386.284C750.544 381.952 747.197 378.563 737.789 373.366C729.544 368.813 728.501 368.368 727.098 368.817C726.255 369.087 725.525 369.985 723.959 372.696C722.838 374.639 721.567 376.983 721.134 377.912C720.701 378.837 719.754 380.776 719.027 382.218C717.493 385.269 717.284 387.164 718.231 389.556C718.977 391.447 720.794 392.994 724.84 395.173C726.116 395.858 728.532 397.393 730.213 398.58L733.267 400.737L734.905 399.527C735.806 398.861 738.346 396.884 740.549 395.128Z" fill="#00378C"/>
<path d="M897.419 674.643C892.471 673.632 885.475 670.786 882.46 668.615C881.107 667.641 880.334 665.694 879.638 661.65L879.175 659.179L874.962 657.382C872.488 656.371 870.053 655.061 869.086 654.237L867.463 652.814L867.424 643.715C867.386 638.698 867.077 630.955 866.729 626.529C865.105 605.547 865.067 600.2 866.342 592.397C867.115 587.818 867.231 578.925 866.574 573.736C865.453 565.113 865.337 561.713 865.917 556.699C866.961 547.612 866.767 546.257 863.598 542.284C861.317 539.427 860.776 538.072 860.274 534.354C859.887 531.179 859.037 529.299 856.64 526.064C854.901 523.709 854.592 522.503 854.089 516.456C853.278 505.999 850.804 498.398 842.726 481.414C840.638 477.104 838.822 473.188 838.629 472.712C838.126 471.458 837.74 471.918 836.812 474.779C834.995 480.429 834.763 484.978 835.343 500.536C835.73 510.948 835.498 514.138 833.256 529.741C830.318 550.094 830.396 549.057 830.357 577.667C830.357 607.722 830.705 613.125 833.488 624.949C834.841 630.656 834.841 630.843 833.642 630.798C833.101 630.779 832.367 630.633 832.019 630.476C831.439 630.236 831.323 630.393 831.323 631.434C831.362 633.419 831.942 635.516 834.609 643.416C837.392 651.541 838.165 655.21 837.74 658.468C837.392 660.939 837.082 661.239 833.295 662.474C828.308 664.084 822.858 663.373 818.916 660.639C815.708 658.43 814.046 655.847 813.543 652.365C813.35 650.83 812.77 647.31 812.345 644.539C811.456 639.147 811.533 636.077 812.538 634.58C813.35 633.381 813.35 633.381 811.843 633.119C810.296 632.82 809.717 632.258 808.325 629.573C806.74 626.499 806.238 623.283 805.967 615.297C805.851 611.279 805.349 604.202 804.847 599.571C802.991 582.965 801.754 564.334 800.595 535.919C799.203 501.165 799.319 503.078 796.927 483.874C794.897 467.65 794.615 464.119 794.611 454.8C794.608 444.84 795.064 440.519 796.803 434.113C797.58 431.312 798.276 428.639 798.392 428.174C798.624 427.104 797.271 425.501 790.027 418.218C783.286 411.434 780.376 407.723 777.952 402.811C775.738 398.314 775.007 395.701 774.474 390.365C773.998 385.595 774.172 381.937 775.683 364.994C777.145 348.65 777.461 345.76 778.412 340.155C780.697 326.743 784.16 322.796 801.368 313.979C805.001 312.125 809.407 309.718 811.224 308.628C815.089 306.303 826.608 300.031 827.033 300.031C827.188 300.031 827.999 301.675 828.811 303.682C829.623 305.689 830.975 308.643 831.787 310.246C832.599 311.848 833.952 314.967 834.763 317.173C836.232 321.134 837.817 324.568 838.087 324.305C838.358 324.058 840.6 316.993 840.6 316.435C840.6 316.132 840.213 315.675 839.711 315.42C839.208 315.166 838.629 314.484 838.397 313.908C838.01 312.893 838.087 312.784 840.638 310.935C842.107 309.879 843.46 309.018 843.615 309.018C843.808 309.018 844.774 309.707 845.779 310.545C847.325 311.867 847.557 312.271 847.557 313.514C847.557 314.724 847.403 314.975 846.707 315.076C845.586 315.226 845.625 315.81 846.939 321.258C847.673 324.294 847.944 326.559 847.982 329.495L848.021 333.542L848.601 331.109C850.843 321.407 852.891 313.983 854.708 308.898C855.867 305.64 856.834 302.645 856.834 302.241C856.834 300.294 859.192 301.29 867.85 306.88C874.227 310.987 875.348 311.534 882.151 313.885C891.311 317.038 895.37 319.655 897.187 323.594C898.385 326.178 899.892 332.408 900.472 337.099C902.134 350.347 902.018 387.123 900.317 395.296C899.39 399.67 897.225 403.234 889.108 413.665C879.948 425.452 877.706 428.553 877.706 429.466C877.706 430.447 878.556 431.574 881.996 435.053C885.514 438.662 885.862 439.594 884.509 441.961C882.035 446.27 882.19 456.219 884.857 469.5C887.33 481.766 891.041 510.694 893.553 537.229C894.21 544.025 895.099 551.776 895.563 554.453C896.568 560.518 896.414 566.097 894.752 585.343C892.278 613.593 892.278 622.736 894.558 639.859L894.829 641.768L893.128 642.33C892.239 642.63 891.427 643.041 891.35 643.266C891.157 643.865 895.409 649.819 898.771 653.675C906.656 662.699 909.091 666.031 910.522 669.738C911.874 673.22 911.836 673.407 909.401 674.194C906.579 675.13 900.704 675.354 897.419 674.643Z" fill="#424242"/>
<path d="M851.423 416.751C851.423 416.695 850.997 414.628 850.456 412.164C849.915 409.697 849.49 407.068 849.49 406.319C849.49 405.574 849.374 404.421 849.258 403.762L848.987 402.56L846.398 405.076L843.769 407.592L842.61 406.323C841.991 405.627 840.986 404.503 840.407 403.826C839.827 403.144 839.286 402.642 839.208 402.706C838.938 402.972 836 415.89 836.194 416.058C836.619 416.489 840.02 416.762 845.547 416.803C848.756 416.829 851.423 416.807 851.423 416.751Z" fill="#424242"/>
<path d="M999.19 674.456C997.605 673.969 996.948 672.995 995.943 669.963C995.518 668.615 994.513 666.518 993.663 665.282C992.851 664.047 991.962 662.512 991.691 661.913C990.88 660.04 991.073 649.444 992.039 642.442C993.276 633.569 993.547 630.547 994.436 617.169C995.402 601.915 995.788 597.553 996.948 587.964C998.455 575.66 998.803 568.321 998.571 556.138C997.992 528.872 996.793 520.586 989.913 496.844L987.324 487.91L986.589 488.794C984.193 491.602 982.84 495.919 975.689 523.376C972.868 534.29 968.732 549.454 966.49 557.074C961.427 574.211 958.45 585.126 951.764 610.991C948.903 622.111 945.772 633.718 944.806 636.826C943.879 639.896 942.448 644.876 941.675 647.872C940.941 650.867 939.936 654.387 939.472 655.734C937.772 660.827 935.066 664.983 932.438 666.555C931.433 667.192 931.046 667.753 930.698 669.139C930.08 671.648 929.113 673.632 928.379 673.894C927.026 674.418 919.566 674.568 917.595 674.081C915.044 673.52 913.923 672.247 912.841 668.727C912.416 667.229 911.527 664.833 910.87 663.41C909.517 660.377 909.401 658.131 910.328 654.798C910.676 653.563 911.14 650.006 911.333 646.935C911.681 640.683 912.338 637.463 916.126 623.085C917.479 617.876 919.837 607.965 921.383 601.069C922.89 594.168 925.441 583.628 926.988 577.645C928.572 571.658 930.466 563.488 931.239 559.485C933.017 549.986 934.177 545.744 936.303 540.449C939.163 533.474 939.202 534.054 934.215 519.425C925.789 494.743 925.944 495.234 925.944 491.924C925.944 490.198 926.176 488.292 926.485 487.431C927.026 486.023 927.026 485.854 926.215 484.623C924.05 481.268 924.011 479.662 925.867 469.99C926.601 465.991 927.606 460.779 928.031 458.413C929.036 453.164 929.152 446.413 928.418 435.76C927.992 429.725 927.992 424.273 928.302 407.678C928.534 396.352 928.92 384.221 929.113 380.72C929.307 377.219 929.655 370.816 929.886 366.492C930.853 347.95 931.935 342.776 935.298 340.604C936.109 340.087 939.086 338.743 941.869 337.616C949.406 334.591 948.942 335.036 948.749 330.753C948.594 327.623 948.285 326.339 946.198 320.438C943.531 312.706 942.874 309.227 943.415 305.15C943.879 301.507 944.768 299.328 947.203 295.842C949.56 292.437 951.184 289.361 952.111 286.551C953.078 283.56 956.982 275.794 958.76 273.224C961.89 268.792 965.756 266.12 970.433 265.177C971.592 264.945 974.298 264.83 976.424 264.921C981.99 265.159 984.193 266.054 987.671 269.48C990.3 272.071 991.537 273.856 996.02 281.814C997.412 284.307 998.687 286.046 1000 287.185C1004.1 290.734 1004.68 292.719 1002.48 295.306C1001.55 296.411 1001.28 297.107 1001.28 298.298C1001.28 300.522 1001.86 301.29 1005.06 303.401C1006.65 304.435 1008.12 305.607 1008.35 306.004C1008.62 306.472 1008.66 309.033 1008.51 313.207C1008.27 320.273 1008.7 323.77 1010.28 327.847C1011.37 330.659 1012.02 331.206 1015.5 332.187C1017.32 332.689 1018.9 333.426 1019.71 334.123C1022.27 336.283 1024.85 344.127 1027.87 358.629C1028.8 363.159 1030.27 369.573 1031.12 372.879C1031.93 376.189 1032.82 380.57 1033.09 382.614C1033.9 389.598 1034.63 392.559 1036.57 396.82C1041.17 407.023 1044.49 420.851 1044.95 431.829C1045.19 437.516 1044.53 444.204 1043.29 448.865C1041.94 453.942 1039.19 457.746 1036.45 458.293C1035.75 458.435 1035.14 458.933 1034.75 459.678C1034.4 460.323 1033.4 461.772 1032.51 462.906C1031.58 464.037 1030.73 465.306 1030.61 465.725C1030.5 466.141 1030.3 474.06 1030.19 483.323C1030.11 492.583 1029.84 504.793 1029.61 510.458C1029.42 516.119 1029.07 531.957 1028.87 545.654C1028.53 567.438 1028.33 572.519 1027.29 586.279C1024.74 620.452 1023.62 631.584 1020.91 648.92C1018.79 662.586 1017.2 667.529 1014.26 669.963C1013.3 670.749 1012.6 671.76 1012.45 672.471C1012.29 673.108 1011.91 673.857 1011.6 674.119C1010.86 674.718 1000.97 674.98 999.19 674.456Z" fill="#00378C"/>
<path d="M943.415 488.753C943.415 486.734 944.149 481.144 945.386 473.764C946.004 470.121 946.43 468.687 947.319 467.298C948.671 465.179 948.671 465.153 947.666 465.153C946.661 465.153 946.662 464.643 947.86 456.915C948.401 453.515 949.174 445.851 949.599 439.879C950.488 427.306 951.261 420.349 952.343 414.044C953.387 408.322 953.155 405.413 951.3 399.254C950.527 396.678 949.638 393.521 949.29 392.233C948.942 390.945 948.555 389.893 948.44 389.893C948.285 389.893 948.053 392.799 947.898 396.352C947.435 407.686 946.159 427.212 945.154 437.258C944.226 446.941 943.647 456.282 943.028 470.582C942.874 474.7 942.526 478.827 942.332 479.755C941.753 482.02 941.057 486.405 941.018 487.876C940.98 488.715 941.25 489.299 941.907 489.831C942.41 490.247 942.951 490.595 943.144 490.598C943.299 490.606 943.415 489.775 943.415 488.753Z" fill="#00378C"/>
<path d="M997.412 457.293L1002.13 456.81L1001.62 455.833C1001.39 455.294 997.876 448.169 993.817 439.995C988.754 429.672 986.435 425.329 986.241 425.767C985.893 426.583 978.588 457.043 978.588 457.717C978.588 458.136 979.825 458.185 985.661 458.001C989.527 457.878 994.822 457.559 997.412 457.293Z" fill="white"/>
<path d="M1031.16 436.644C1031.93 433.581 1030.38 428.302 1026.01 418.911C1024.93 416.522 1023.62 412.666 1022.46 408.255C1021.49 404.451 1020.29 400.493 1019.91 399.456C1018.17 395.199 1015.77 388.021 1015.11 385.213C1014.77 383.566 1014.11 381.592 1013.72 380.828C1013.34 380.065 1012.99 379.166 1012.99 378.837C1012.99 378.428 1012.72 378.271 1012.14 378.354C1011.13 378.5 1010.86 379.323 1010.32 384.651C1010.09 386.812 1009.74 389.729 1009.55 391.129C1009.16 393.933 1009.59 398.206 1010.48 400.422C1010.79 401.163 1012.41 404.619 1014.11 408.098C1017.24 414.5 1021.34 424.419 1024.43 432.952C1025.36 435.524 1026.52 438.437 1026.98 439.418L1027.83 441.208L1029.26 439.834C1030.27 438.887 1030.85 437.902 1031.16 436.644Z" fill="#00378C"/>
<path d="M985.43 383.596C986.357 380.439 987.478 376.923 987.903 375.778C988.29 374.632 988.986 371.487 989.449 368.783C989.875 366.08 990.764 362.1 991.421 359.939C992.426 356.465 992.58 355.094 992.928 348.145C993.199 342.51 993.16 339.271 992.851 336.725C992.194 331.532 992.232 331.554 990.184 334.007C987.942 336.729 986.589 337.35 981.487 338.047C974.22 339.032 969.698 337.875 965.485 333.973L963.437 332.045L963.668 334.104C963.823 335.235 964.094 338.942 964.287 342.341C964.48 345.738 965.099 352.395 965.64 357.131C966.181 361.868 966.722 366.754 966.877 367.99C967.031 369.734 967.611 371.191 969.428 374.542C971.747 378.855 978.704 389.942 981.294 393.439L982.647 395.3L983.149 392.316C983.458 390.676 984.463 386.748 985.43 383.596Z" fill="white"/>
<path d="M438.81 673.969C435.098 673.033 430.593 670.375 427.756 667.454C426.99 666.668 425.286 664.496 423.968 662.624C421.664 659.366 421.551 659.104 421.059 655.697C420.778 653.75 420.254 651.578 419.894 650.905C419.533 650.231 417.662 647.984 415.735 645.887C411.314 641.132 411.026 640.458 411.274 635.89C411.431 633.007 411.807 631.322 413.278 626.915L415.089 621.497L414.434 618.303C413.73 614.866 413.765 612.601 414.698 601.162C415.282 593.996 414.966 588.821 413.122 575.421C410.233 554.423 408.741 545.774 405.921 533.672C404.487 527.517 401.216 515.49 400.737 514.614C400.557 514.285 400.012 515.389 399.257 517.609C396.36 526.135 394.29 534.971 390.889 553.33C387.889 569.52 386.249 577.454 384.462 584.407C381.522 595.849 370.536 632.745 368.797 637.013C366.771 641.993 363.648 647.31 361.202 649.968C359.559 651.728 359.493 651.915 359.265 654.836C358.26 667.716 345.961 676.178 335.328 671.311C334.145 670.749 332.958 670.075 332.692 669.738C332.425 669.439 332.123 667.941 332.023 666.443C331.722 661.875 332.626 658.955 336.97 650.642C341.647 641.694 342.335 639.297 341.659 634.355C340.704 627.421 340.921 625.339 344.929 603.128C349.892 575.626 352.122 561.286 353.552 547.679C353.95 543.913 354.341 542.486 356.706 536.106C358.569 531.085 358.65 526.143 357.093 512.839C355.775 501.599 355.636 497.035 356.455 491.752C357.073 487.764 357.008 487.51 354.735 485.184C351.832 482.215 351.264 481.051 351.268 478.111C351.272 476.647 351.631 473.847 352.064 471.892C354.271 461.974 354.766 458.952 355.694 449.801C356.726 439.662 358.183 428.972 359.149 424.513C359.771 421.641 359.439 421.734 358.295 424.749C357.178 427.699 356.451 431.368 355.326 439.729C354.789 443.724 354.167 448.004 353.947 449.24C353.483 451.801 352.025 457.29 351.805 457.29C351.728 457.29 350.816 456.784 349.784 456.17C346.997 454.508 345.057 453.965 341.508 453.856C338.582 453.766 338.026 453.875 334.868 455.141C332.974 455.901 330.995 456.908 330.473 457.376L329.518 458.226L329.777 452.797C330.144 445.106 331.447 431.413 332.139 428.017C332.46 426.433 333.233 423.532 333.859 421.566C335.486 416.44 336.255 412.524 335.946 410.921C335.803 410.165 335.278 408.382 334.779 406.956C333.496 403.29 333.596 402.294 335.707 397.966L337.543 394.199V389.519C337.543 386.943 337.314 382.143 337.032 378.848C336.352 370.828 336.681 369.143 340.925 358.752C344.643 349.658 344.759 349.283 347.352 337.848C348.4 333.213 349.436 328.99 349.648 328.462C350.213 327.046 354.418 325.593 365.179 323.096C382.788 319.011 383.088 318.906 387.055 315.293C389.241 313.305 391.644 311.639 392.33 311.639C392.404 311.639 392.392 313.23 392.304 315.177C392.097 319.756 392.701 324.575 394.44 332.232C395.213 335.628 395.838 338.829 395.83 339.346C395.801 341.211 397.606 353.829 398.294 356.57L398.999 359.378L399.192 351.504L399.385 343.633L401.221 341.14C402.231 339.769 403.057 338.481 403.057 338.279C403.057 338.077 402.468 337.556 401.748 337.126C399.32 335.673 399.323 335.639 402.305 331.91C403.809 330.027 405.208 328.488 405.414 328.488C406.221 328.488 404.701 326.631 400.356 322.31C393.289 315.282 392.636 313.728 393.629 306.318C394.388 300.653 394.27 299.567 392.405 295.044C391.102 291.882 390.791 291.418 389.83 291.213C387.04 290.62 384.971 287.217 384.613 282.635C384.324 278.941 384.78 278.146 387.018 278.443L388.682 278.664L388.472 274.249C388.015 264.645 391.273 258.22 398.353 254.758C403.081 252.446 407.758 251.951 412.88 253.22C416.949 254.227 419.406 255.579 422.413 258.464C426.713 262.591 428.042 266.35 427.684 273.379L427.469 277.617L429.178 278.327L430.887 279.036V281.465C430.887 287.092 429.149 290.191 425.522 291.034L423.662 291.466L422.781 295.093C421.532 300.241 421.272 307.359 422.205 310.845L422.902 313.447L420.807 316.686C418.362 320.46 414.381 324.785 411.098 327.233C409.824 328.184 408.928 329.064 409.108 329.192C409.6 329.54 412.926 333.797 413.431 334.726C413.812 335.43 413.687 335.752 412.513 337.115C410.885 339.002 410.863 338.844 413.416 343.652C413.853 344.476 414.385 345.569 414.599 346.086L414.987 347.022L415.013 345.97C415.048 344.554 416.899 339.327 419.244 334.022C421.558 328.787 423.285 323.613 423.904 320.063C424.614 315.993 424.685 315.757 425.203 315.757C425.471 315.757 426.579 316.735 427.666 317.933C429.481 319.928 429.906 320.187 432.873 321.085C434.651 321.625 437.061 322.407 438.231 322.823C439.4 323.242 442.792 324.276 445.768 325.118C452.989 327.17 457.121 329.128 459.896 331.816C462.64 334.475 463.348 336.261 464.673 343.925C468.028 363.298 468.531 377.507 467.19 415.541C466.745 428.234 466.946 438.636 467.854 449.614C468.798 461.008 468.612 470.514 467.367 474.607C467.058 475.625 466.448 475.378 466.44 474.232C466.432 472.806 466.026 472.315 464.488 471.87C462.555 471.308 454.191 470.732 452.023 471.009C449.45 471.338 448.911 471.952 449.219 474.202L449.466 476.007L448.39 475.565C446.041 474.599 446.146 475.337 446.249 460.551L446.344 446.993L445.238 448.158C443.697 449.783 443.47 451.808 444.27 456.766C444.794 460.004 444.935 463.516 444.952 473.764C444.975 487.049 444.64 490.995 443.104 495.552C442.804 496.44 442.446 499.356 442.307 502.033C442.167 504.711 441.549 515.239 440.934 525.435C438.19 570.853 437.698 587.971 438.835 598.448C439.159 601.432 439.562 607.329 439.73 611.553C440.019 618.809 440.095 619.359 441.124 621.662C441.722 622.999 442.229 624.766 442.251 625.59C442.287 626.994 442.164 627.162 440.214 628.432C439.072 629.169 437.985 630.042 437.798 630.367C437.385 631.082 438.199 635.441 439.384 638.886C439.847 640.233 441.93 644.764 444.014 648.995C448.205 657.494 449.139 659.966 450.009 664.871C450.747 669.027 450.743 669.551 449.986 671.049C448.678 673.595 443.12 675.017 438.81 673.969Z" fill="#424242"/>
<path d="M445.134 438.007C444.236 428.777 442.112 415.89 441.285 414.643C440.711 413.778 441.143 423.842 441.906 429.129C442.591 433.869 444.861 442.069 445.336 441.523C445.405 441.44 445.314 439.86 445.134 438.007Z" fill="#424242"/>
<path d="M414.534 347.684C414.436 347.318 414.35 347.527 414.342 348.145C414.334 348.763 414.414 349.059 414.52 348.808C414.626 348.553 414.632 348.048 414.534 347.684Z" fill="#424242"/>
<path d="M520.368 669.326C518.35 668.914 515.648 667.941 514.74 667.342C513.847 666.705 513.681 666.218 513.256 662.961C512.664 658.468 513.016 656.633 515.13 653.226C517.225 649.856 517.31 648.883 515.969 643.566C515.347 641.095 514.636 637.201 514.392 634.954C513.843 629.866 513.271 627.664 511.045 622.1C508.014 614.514 507.798 613.222 507.4 600.133C507.207 593.749 506.913 587.851 506.743 587.028L506.437 585.53L484.51 585.433L462.583 585.335V544.714V504.093H475.871H489.16L489.62 503.011C489.875 502.415 491.274 499.955 492.728 497.544C496.032 492.07 496.809 489.52 496.411 485.484C496.021 481.519 496.021 481.931 496.369 455.043C496.589 438.011 496.542 428.56 496.21 421.719C495.483 406.739 495.29 386.179 495.8 377.537C496.322 368.656 496.651 365.196 497.961 354.832C499.94 339.17 501.432 334.636 505.962 330.491C508.791 327.9 511.783 326.387 520.978 322.89C528.999 319.842 532.532 318.075 535.005 315.866L536.354 314.664L537.154 316.263C537.595 317.143 539.276 319.79 540.896 322.145C544.313 327.125 547.811 333.928 550.891 341.593C556.109 354.563 557.416 357.685 557.574 357.532C557.667 357.442 557.617 352.825 557.462 347.273L557.176 337.178L555.394 335.856C554.413 335.134 553.218 334.138 552.747 333.651L551.885 332.76L555.085 329.678L558.282 326.593L560.005 327.181C563.604 328.409 566.074 331.992 565.019 334.456C564.648 335.328 565.042 336.961 567.871 346.299C572.092 360.228 573.225 365.634 575.08 380.72C575.919 387.516 577.036 395.603 577.569 398.692C579.262 408.543 580.472 416.912 580.472 418.806C580.472 420.503 580.541 420.637 581.341 420.529C582.188 420.413 582.215 420.27 582.323 415.354C582.385 412.572 582.161 405.327 581.821 399.254C581.481 393.177 581.048 383.236 580.862 377.159L580.522 366.11L578.589 358.812C574.249 342.405 571.195 333.737 567.914 328.499C566.739 326.616 565.749 324.53 565.587 323.583L565.301 321.935L567.431 323.882C569.085 325.395 571.06 326.533 576.27 328.989C586.529 333.823 588.129 335.205 589.412 340.361C590.119 343.203 589.915 351.942 588.948 360.127C587.522 372.194 587.839 382.427 589.961 392.758C591.287 399.209 592.214 401.493 598.287 413.295C604.668 425.696 605.275 427.515 605.317 434.45C605.375 443.002 602.824 448.472 596.953 452.385C595.6 453.287 595.198 453.811 594.997 454.938C594.193 459.424 591.461 464.029 589.598 464.029C589.122 464.029 588.233 463.524 587.622 462.906C586.219 461.487 585.671 461.491 584.901 462.932C583.865 464.872 583.792 468.605 584.685 473.764C585.721 479.763 585.701 481.316 584.557 484.885C582.895 490.056 582.675 493.302 582.578 514.015C582.435 544.605 581.84 554.947 579.49 567.745C577.38 579.24 577.438 583.486 579.892 597.699C582.134 610.699 582.455 613.762 582.459 622.224C582.462 636.377 583.266 640.832 586.424 644.015C587.831 645.475 588.419 645.737 591.681 646.561C596.748 647.872 600.42 649.631 602.724 651.878C604.931 654.012 606.616 656.82 606.245 657.756C605.886 658.655 602.446 660.078 598.928 660.752C588.167 662.886 573.592 661.051 569.251 657.045C568.304 656.146 568.227 656.146 566.391 656.671C563.732 657.457 559.325 657.382 554.525 656.446C552.263 655.997 550.234 655.547 550.014 655.398C549.751 655.248 549.728 654.574 549.944 653.451C550.679 649.669 551.177 640.383 550.93 635.141C550.555 627.203 549.774 620.786 547.424 606.311C546.269 599.204 545.19 592.296 545.02 590.959L544.719 588.525H541.047H537.375L537.491 589.836C537.556 590.555 538.21 594.43 538.94 598.448C542.705 619.108 543.304 627.589 541.58 635.89C540.981 638.773 539.381 642.555 537.904 644.577C537.089 645.663 537.081 645.775 537.703 647.647C538.534 650.23 538.499 652.777 537.56 657.756C537.139 660.003 536.795 662.549 536.795 663.448C536.795 664.758 536.586 665.207 535.434 666.181C533.606 667.716 532.261 668.353 529.374 669.027C527.112 669.551 522.153 669.701 520.368 669.326Z" fill="#424242"/>
<path d="M504.246 502.689C504.346 499.91 504.285 499.6 503.654 499.6C503.268 499.6 502.599 499.36 502.166 499.064C501.652 498.716 501.185 498.649 500.825 498.873C499.816 499.491 498.595 499.24 497.791 498.244C496.906 497.158 495.824 497.256 495.824 498.428C495.824 498.825 495.391 500.053 494.861 501.153C493.984 502.973 493.601 505.186 494.08 505.647C494.185 505.748 496.488 505.819 499.202 505.804L504.134 505.778L504.246 502.689Z" fill="#424242"/>
<path d="M448.088 504.198C446.676 503.864 445.962 502.925 445.962 501.397C445.962 499.566 446.972 498.529 450.261 496.986C454.335 495.073 455.634 493.373 455.618 489.969C455.607 488.03 454.838 486.117 452.696 482.702L451.324 480.515L452.337 479.231C452.893 478.523 453.574 477.864 453.848 477.759C454.424 477.546 461.938 478.081 463.364 478.441C464.841 478.808 467.222 484.548 467.222 487.73C467.222 495.945 461.988 502.236 453.744 503.928C451.166 504.456 449.519 504.535 448.088 504.198Z" fill="#424242"/>
<path d="M338.061 491.961C334.791 490.831 330.365 487.592 328.916 485.267C328.502 484.604 327.613 481.829 326.937 479.104C325.526 473.39 325.603 472.652 327.895 469.623C328.68 468.586 329.538 467.028 329.801 466.163C330.218 464.786 330.555 464.452 332.53 463.468C334.617 462.427 335.081 462.344 338.869 462.352C342.367 462.356 343.19 462.479 344.616 463.209C346.63 464.243 346.866 464.737 346.062 466.242C345.722 466.879 345.173 469.125 344.837 471.237C343.917 477.067 342.974 479.886 341.57 481.032C340.917 481.564 340.237 482.002 340.063 482.002C339.688 482.002 338.509 478.819 338.509 477.812C338.509 477.43 339.012 476.827 339.63 476.464C340.639 475.865 340.697 475.734 340.21 475.086C339.912 474.693 339.669 473.645 339.669 472.757C339.669 471.87 339.518 471.143 339.332 471.143C338.683 471.143 336.94 472.723 336.329 473.865C335.143 476.086 335.776 478.505 339.305 485.252C341.157 488.794 342.378 491.557 342.243 491.898C341.957 492.62 340.044 492.647 338.061 491.961Z" fill="#424242"/>
<path d="M681.686 328.068C671.625 316.547 671.231 316.049 671.513 315.229C672.325 312.874 672.159 311.47 670.852 309.572C669.152 307.108 668.324 307.112 667.053 309.587C666.519 310.62 665.874 312.032 665.615 312.728C665.166 313.938 665.105 313.968 664.262 313.436C663.779 313.129 662.84 312.054 662.179 311.043C660.834 308.984 659.349 307.34 658.627 307.108C658.255 306.988 658.325 305.67 658.943 301.181C662.07 278.482 668.664 266.929 680.554 263.323C686.031 261.663 694.577 262.027 699.01 264.11C706.799 267.766 710.741 279.454 709.578 295.419C709.021 303.046 708.179 308.224 707.348 309.141C706.973 309.553 704.236 311.444 701.26 313.346L695.849 316.809L691.326 324.051C688.841 328.035 686.568 331.61 686.271 332C685.772 332.651 685.447 332.374 681.686 328.068Z" fill="#00378C"/>
<path d="M554.768 323.579C553.067 322.332 550.111 320.295 548.197 319.056C544.193 316.457 540.169 313.35 538.592 311.635C537.993 310.983 537.193 309.579 536.814 308.516C536.432 307.453 535.156 304.731 533.977 302.465C531.345 297.411 530.997 296.205 531.009 292.168C531.016 288.507 531.65 286.691 534.684 281.625C539.914 272.901 543.88 268.525 548.576 266.3C551.038 265.132 551.572 265.022 554.76 265.025C557.652 265.027 558.66 265.195 560.674 266.015C566.348 268.326 571.215 272.282 574.651 277.379C577.175 281.125 578.211 283.853 578.443 287.345C578.628 290.123 578.574 290.336 576.425 295.583C573.333 303.121 569.429 309.875 564.949 315.435C564.103 316.487 563.851 317.199 563.851 318.539C563.851 319.52 563.523 320.898 563.105 321.696C562.216 323.381 559.484 325.871 558.533 325.856C558.162 325.852 556.469 324.826 554.768 323.579Z" fill="#424242"/>
<path d="M839.399 305.348C831.63 299.148 831.05 298.571 829.775 295.535C829.04 293.765 828.654 292.365 828.77 291.662C829.04 290.112 828.383 283.182 827.417 276.8C825.793 266.054 826.412 258.673 829.465 253.177C832.442 247.716 839.128 244.477 847.361 244.504C853.546 244.524 858.184 246.347 861.083 249.91C863.441 252.808 863.943 254.935 863.673 261.447C863.441 267.602 862.899 270.124 859.228 282.62C857.952 286.945 856.599 291.999 856.213 293.853L855.517 297.223L852.038 301.016C849.101 304.191 844.114 308.692 843.651 308.625C843.573 308.613 841.679 307.138 839.399 305.348Z" fill="#424242"/>
<defs>
<clipPath id="clip0_24_113">
<rect width="1366" height="1000" fill="white" transform="matrix(-1 0 0 -1 1366 1000)"/>
</clipPath>
</defs>
</svg>
